<svg height="492pt" viewBox="0 -17 492.00644 492" width="492pt" xmlns="http://www.w3.org/2000/svg" xmlns:xlink="http://www.w3.org/1999/xlink"><linearGradient id="lg1"><stop offset=".322" stop-color="#a163f5"/><stop offset=".466" stop-color="#b074ee"/><stop offset=".752" stop-color="#d8a1dd"/><stop offset=".898" stop-color="#efbad3"/></linearGradient><linearGradient id="linear0" gradientUnits="userSpaceOnUse" x1="158.283863" x2="158.283863" xlink:href="#lg1" y1="457.38122" y2="3.37722"/><linearGradient id="linear1" gradientUnits="userSpaceOnUse" x1="190.090863" x2="190.090863" xlink:href="#lg1" y1="457.38122" y2="3.37722"/><linearGradient id="linear2" gradientUnits="userSpaceOnUse" x1="130.938863" x2="130.938863" xlink:href="#lg1" y1="457.38122" y2="3.37722"/><linearGradient id="linear3" gradientUnits="userSpaceOnUse" x1="182.586863" x2="182.586863" xlink:href="#lg1" y1="457.38122" y2="3.37722"/><linearGradient id="linear4" gradientUnits="userSpaceOnUse" x1="165.055863" x2="165.055863" xlink:href="#lg1" y1="457.38122" y2="3.37722"/><linearGradient id="linear5" gradientUnits="userSpaceOnUse" x1="326.329863" x2="326.329863" xlink:href="#lg1" y1="457.38122" y2="3.37722"/><linearGradient id="linear6" gradientUnits="userSpaceOnUse" x1="283.070863" x2="283.070863" xlink:href="#lg1" y1="457.38122" y2="3.37722"/><linearGradient id="linear7" gradientUnits="userSpaceOnUse" x1="208.922863" x2="208.922863" xlink:href="#lg1" y1="457.38122" y2="3.37722"/><path d="m152.054688 375.925781c6.605468.007813 13.101562-1.679687 18.867187-4.898437 11.722656 9.910156 28.121094 12.140625 42.066406 5.71875 13.945313-6.417969 22.914063-20.328125 23.007813-35.679688v-228.640625c-.164063-12.535156-7.222656-23.957031-18.359375-29.707031s-24.535157-4.894531-34.851563 2.226562c-10.3125 7.121094-15.859375 19.347657-14.429687 31.800782-17.273438-4.25-35.507813.914062-47.988281 13.589844-12.480469 12.679687-17.355469 30.996093-12.835938 48.199218-11.171875 5.34375-19.011719 15.832032-20.980469 28.058594s2.183594 24.644531 11.109375 33.226562c-13.246094 11.675782-19.425781 29.429688-16.289062 46.804688 3.136718 17.378906 15.132812 31.847656 31.625 38.15625v11.847656c-.042969 10.394532 4.050781 20.378906 11.378906 27.75s17.285156 11.527344 27.679688 11.546875zm-59.722657-98.121093c.023438-21.199219 17.203125-38.378907 38.398438-38.402344 3.316406 0 6-2.683594 6-6 0-3.3125-2.683594-6-6-6-7.917969-.003906-15.722657 1.867187-22.777344 5.464844-6.519531-5.09375-10.191406-13.007813-9.875-21.273438s4.585937-15.878906 11.472656-20.457031c.785157-.515625 1.597657-.984375 2.429688-1.414063.214843.394532.410156.800782.636719 1.1875 1.035156 1.925782 3.039062 3.132813 5.226562 3.15625 2.1875.019532 4.214844-1.152344 5.285156-3.058594 1.074219-1.910156 1.023438-4.25-.132812-6.109374-9.09375-15.746094-5.894532-35.710938 7.660156-47.828126 13.554688-12.121093 33.753906-13.070312 48.386719-2.277343 2.667969 1.96875 6.421875 1.40625 8.390625-1.261719 1.96875-2.664062 1.40625-6.421875-1.257813-8.390625-1.15625-.851563-2.335937-1.648437-3.546875-2.390625-1.714844-3.171875-2.613281-6.71875-2.613281-10.324219.140625-12.046875 9.945313-21.738281 21.992187-21.738281 12.042969 0 21.847657 9.691406 21.988282 21.738281v228.640625c-.097656 10.222656-5.84375 19.550782-14.929688 24.234375-9.085937 4.6875-20.019531 3.957031-28.402344-1.894531 6.78125-7.265625 10.539063-16.839844 10.511719-26.777344 0-3.324218-2.695312-6.023437-6.023437-6.023437-3.324219 0-6.023438 2.699219-6.023438 6.023437.058594 9.710938-5.085937 18.707032-13.484375 23.578125-8.398437 4.871094-18.761719 4.871094-27.164062 0-8.398438-4.871093-13.542969-13.867187-13.484375-23.578125v-8.824218c1.980468.261718 3.976562.394531 5.972656.398437 1.578125-.003906 3.089844-.644531 4.195312-1.769531 1.105469-1.128906 1.710938-2.652344 1.683594-4.230469-.027344-3.324219-2.734375-6.003906-6.058594-6-21.210937-.019531-38.40625-17.191406-38.457031-38.398437zm0 0" fill="url(#linear0)"/><path d="m195.765625 232.351562c.800781-7.214843-1.304687-14.453124-5.847656-20.117187-2.074219-2.582031-5.847657-2.996094-8.433594-.925781-2.585937 2.074218-3 5.851562-.925781 8.4375 3.425781 4.28125 4.324218 10.0625 2.351562 15.183594-.234375.109374-.46875.210937-.699218.328124-10.429688 5.25-16.402344 16.515626-14.894532 28.09375.433594 3.285157 3.449219 5.601563 6.734375 5.167969 3.285157-.433593 5.597657-3.445312 5.167969-6.734375-.789062-6.109375 2.121094-12.109375 7.414062-15.265625 5.292969-3.15625 11.953126-2.871093 16.957032.726563 2.691406 1.9375 6.441406 1.328125 8.378906-1.359375 1.933594-2.691407 1.328125-6.441407-1.363281-8.378907-4.339844-3.121093-9.496094-4.910156-14.839844-5.15625zm0 0" fill="url(#linear1)"/><path d="m140.554688 208.222656c-1.402344-1.371094-2.398438-3.101562-2.882813-5 3.09375-5.1875 3.992187-11.390625 2.503906-17.242187-.511719-2.097657-2.113281-3.757813-4.191406-4.347657-2.078125-.585937-4.3125-.011718-5.851563 1.503907-1.535156 1.515625-2.140624 3.742187-1.578124 5.828125 1.253906 4.917968-1.109376 10.042968-5.664063 12.285156-1.9375.929688-3.230469 2.828125-3.386719 4.972656-.152344 2.148438.851563 4.210938 2.636719 5.410156 1.785156 1.203126 4.078125 1.355469 6.003906.402344.078125-.035156.152344-.082031.226563-.121094 1.039062 1.796876 2.3125 3.441407 3.796875 4.890626 2.375 2.285156 6.148437 2.230468 8.453125-.128907 2.304687-2.355469 2.273437-6.132812-.066406-8.453125zm0 0" fill="url(#linear2)"/><path d="m165.519531 157.230469c3.566407-.910157 7.351563.078125 10.019531 2.613281 2.667969 2.535156 3.847657 6.265625 3.125 9.875-.214843 1.070312-.59375 2.101562-1.121093 3.058594-1.046875 1.878906-1.007813 4.175781.101562 6.019531s3.121094 2.949219 5.269531 2.902344c2.152344-.046875 4.113282-1.238281 5.140626-3.128907 1.90625-3.464843 2.875-7.363281 2.8125-11.316406 5.519531-.394531 10.703124-2.792968 14.570312-6.75 2.316406-2.367187 2.273438-6.167968-.09375-8.484375-2.371094-2.316406-6.167969-2.273437-8.484375.09375-2.535156 2.582031-6.199219 3.710938-9.742187 3-5.324219-8.089843-15.199219-11.910156-24.582032-9.507812-2.089844.519531-3.742187 2.121093-4.324218 4.195312-.585938 2.070313-.015626 4.300781 1.496093 5.835938 1.511719 1.535156 3.726563 2.140625 5.8125 1.589843zm0 0" fill="url(#linear3)"/><path d="m143.136719 295.78125c2.359375 2.355469 4.09375 5.261719 5.042969 8.453125.042968.195313.097656.386719.164062.578125 1.65625 6.246094.203125 12.90625-3.902344 17.898438-2.074218 2.558593-1.699218 6.316406.84375 8.410156 2.542969 2.097656 6.300782 1.75 8.417969-.777344 4.261719-5.175781 6.792969-11.558594 7.234375-18.25 8.742188 1.929688 17.898438.109375 25.238281-5.023438 1.761719-1.226562 2.734375-3.300781 2.550781-5.441406-.1875-2.140625-1.5-4.019531-3.449218-4.921875-1.945313-.90625-4.230469-.703125-5.984375.535157-5.976563 4.167968-13.746094 4.765624-20.285157 1.554687-1.605468-4.320313-4.125-8.246094-7.390624-11.5-2.34375-2.34375-6.140626-2.339844-8.484376.003906-2.339843 2.34375-2.339843 6.144531.007813 8.484375zm0 0" fill="url(#linear4)"/><path d="m369.296875 308.246094 20.6875.609375c2.542969.058593 4.847656-1.472657 5.777344-3.839844l15.5-40.167969c.910156-2.363281.238281-5.042968-1.679688-6.699218l-15.554687-13.425782c1.285156-12.085937.96875-24.285156-.9375-36.285156l14.96875-14.355469c1.8125-1.742187 2.351562-4.433593 1.34375-6.738281l-17.265625-39.460938c-1.023438-2.332031-3.402344-3.765624-5.9375-3.582031l-20.714844 1.523438c-7.496094-9.597657-16.359375-18.039063-26.308594-25.058594l.605469-20.691406c.078125-2.542969-1.460938-4.855469-3.835938-5.773438l-40.167968-15.5c-2.363282-.910156-5.046875-.238281-6.699219 1.679688l-13.425781 15.558593c-9.675782-1.019531-19.433594-1.03125-29.109375-.027343-3.09375.300781-5.472657 2.863281-5.546875 5.96875v254.785156c.074218 3.046875 2.367187 5.578125 5.390625 5.949219 11.675781 1.707031 23.546875 1.523437 35.164062-.542969l14.386719 14.957031c1.753906 1.816406 4.449219 2.351563 6.765625 1.34375l39.46875-17.265625c2.332031-1.019531 3.765625-3.398437 3.582031-5.9375l-1.523437-20.714843c9.601562-7.492188 18.046875-16.359376 25.066406-26.308594zm-116.300781-145.566406c3-.25 4.9375-.390626 7.332031-.390626 37.15625.011719 67.265625 30.140626 67.253906 67.296876-.011719 37.152343-30.140625 67.265624-67.296875 67.253906-2.398437 0-4.289062-.140625-7.289062-.394532zm81.445312 164.242187c-1.65625 1.222656-2.566406 3.210937-2.414062 5.265625l1.449218 19.726562-31.738281 13.882813-13.660156-14.242187c-1.128906-1.179688-2.695313-1.847657-4.328125-1.847657-.417969 0-.832031.035157-1.242188.101563-11.269531 2.0625-19.511718 2.542968-29.511718 1.601562v-42.890625c3 .210938 4.941406.324219 7.332031.324219 43.78125-.011719 79.265625-35.515625 79.253906-79.296875s-35.511719-79.265625-79.296875-79.253906c-2.390625 0-4.289062.105469-7.289062.320312v-43.113281c8.066406-.488281 16.164062-.214844 24.179687.816406 2.027344.261719 4.050781-.5 5.398438-2.03125l12.785156-14.769531 32.285156 12.453125-.570312 19.714844c-.058594 2.070312.953125 4.023437 2.675781 5.167968 10.847656 7.226563 20.359375 16.28125 28.105469 26.765626 1.222656 1.652343 3.210937 2.566406 5.261719 2.414062l19.726562-1.449219 13.886719 31.738281-14.246094 13.660157c-1.453125 1.394531-2.109375 3.429687-1.746094 5.410156 2.355469 12.875 2.695313 26.042969 1.007813 39.023437-.261719 2 .5 3.996094 2.027344 5.3125l14.769531 12.746094-12.453125 32.265625-19.714844-.582031c-2.066406-.054688-4.019531.953125-5.167969 2.671875-7.226562 10.847656-16.28125 20.355469-26.765625 28.097656zm0 0" fill="url(#linear5)"/><path d="m457.714844 201.652344c-1.109375-1.691406-2.992188-2.707032-5.015625-2.707032-2.023438 0-3.910157 1.015626-5.015625 2.707032l-33.300782 50.769531c-1.210937 1.785156-1.3125 4.09375-.265624 5.976563 1.070312 1.898437 3.105468 3.050781 5.28125 2.984374h25.71875c-6.101563 52.605469-31.875 100.960938-72.144532 135.359376-36.949218 31.679687-83.371094 49.933593-127.367187 49.933593-28.699219 0-58.699219-7.691406-86.757813-22.320312-29.128906-15.203125-54.394531-36.871094-73.863281-63.339844-1.964844-2.671875-5.722656-3.25-8.394531-1.285156-2.671875 1.960937-3.25 5.71875-1.289063 8.390625 20.558594 27.960937 47.238281 50.847656 78 66.914062 29.765625 15.519532 61.683594 23.722656 92.304688 23.722656 46.820312 0 96.089843-19.222656 135.175781-52.738281 42.804688-36.664062 70.109375-88.199219 76.402344-144.207031.007812-.089844.007812-.429688.015625-.429688h28.796875c2.183594.078126 4.222656-1.074218 5.28125-2.984374 1.058594-1.90625.957031-4.25-.261719-6.058594zm-27.203125 47.730468 22.183593-33.832031 22.191407 33.832031zm0 0" fill="url(#linear6)"/><path d="m77.871094 194.589844c-1.039063-1.953125-3.0625-3.183594-5.273438-3.207032h-24.988281c7.410156-50.390624 32.769531-96.410156 71.410156-129.589843 36.949219-31.679688 83.371094-49.820313 127.367188-49.820313 28.699219 0 58.699219 7.75 86.753906 22.378906 29.132813 15.214844 54.398437 36.890626 73.867187 63.367188 1.242188 1.785156 3.359376 2.757812 5.523438 2.542969 2.167969-.21875 4.046875-1.59375 4.910156-3.59375.863282-2 .574219-4.308594-.753906-6.035157-20.558594-27.957031-47.238281-50.84375-78-66.90625-29.761719-15.519531-61.679688-23.72265575-92.296875-23.72265575-46.820313 0-96.089844 19.16406275-135.179687 52.67968775-41.390626 35.386718-68.34375 84.746094-75.734376 138.699218h-29.480468c-2.210938.027344-4.234375 1.253907-5.277344 3.207032-1.042969 1.949218-.945312 4.316406.261719 6.171875l33.300781 50.785156c1.105469 1.691406 2.992188 2.710937 5.011719 2.714844 2.023437 0 3.910156-1.015625 5.023437-2.707031l33.296875-50.796876c1.207031-1.855468 1.308594-4.21875.257813-6.167968zm-38.574219 42.621094-22.191406-33.828126h44.375zm0 0" fill="url(#linear7)"/></svg>