<?xml version="1.0" encoding="utf-8"?>
<!-- Generator: Adobe Illustrator 17.0.0, SVG Export Plug-In . SVG Version: 6.00 Build 0)  -->
<!DOCTYPE svg PUBLIC "-//W3C//DTD SVG 1.1//EN" "http://www.w3.org/Graphics/SVG/1.1/DTD/svg11.dtd">
<svg version="1.1" xmlns="http://www.w3.org/2000/svg" xmlns:xlink="http://www.w3.org/1999/xlink" x="0px" y="0px" width="530px"
	 height="600px" viewBox="0 0 530 600" enable-background="new 0 0 530 600" xml:space="preserve">
<g id="Ebene_2" display="none">
	<rect x="0.08" y="-0.11" display="inline" fill="#E8E8E8" width="530" height="600"/>
</g>
<g id="Ebene_1">
	<g>
		<path fill="#FFFFFF" d="M60.69,188.26c-5.84,0-10.6,4.76-10.6,10.6c0,5.85,4.75,10.6,10.6,10.6s10.6-4.76,10.6-10.6
			C71.29,193.01,66.54,188.26,60.69,188.26z M60.69,204.46c-3.09,0-5.6-2.51-5.6-5.6c0-3.09,2.51-5.6,5.6-5.6s5.6,2.51,5.6,5.6
			C66.29,201.94,63.78,204.46,60.69,204.46z"/>
		<path fill="#FFFFFF" d="M60.69,269.85c-5.84,0-10.6,4.76-10.6,10.6s4.75,10.6,10.6,10.6s10.6-4.76,10.6-10.6
			S66.54,269.85,60.69,269.85z M60.69,286.05c-3.09,0-5.6-2.51-5.6-5.6s2.51-5.6,5.6-5.6s5.6,2.51,5.6,5.6
			S63.78,286.05,60.69,286.05z"/>
		<path fill="#FFFFFF" d="M468.88,310.65c-5.84,0-10.6,4.76-10.6,10.6s4.76,10.6,10.6,10.6s10.6-4.76,10.6-10.6
			S474.73,310.65,468.88,310.65z M468.88,326.85c-3.09,0-5.6-2.51-5.6-5.6s2.51-5.6,5.6-5.6s5.6,2.51,5.6,5.6
			S471.97,326.85,468.88,326.85z"/>
		<path fill="#FFFFFF" d="M20.11,351.44c-5.84,0-10.6,4.76-10.6,10.6s4.76,10.6,10.6,10.6s10.6-4.76,10.6-10.6
			S25.96,351.44,20.11,351.44z M20.11,367.64c-3.09,0-5.6-2.51-5.6-5.6s2.51-5.6,5.6-5.6s5.6,2.51,5.6,5.6S23.2,367.64,20.11,367.64
			z"/>
		<path fill="#FFFFFF" d="M101.71,351.44c-5.84,0-10.6,4.76-10.6,10.6s4.76,10.6,10.6,10.6s10.6-4.76,10.6-10.6
			S107.55,351.44,101.71,351.44z M101.71,367.64c-3.09,0-5.6-2.51-5.6-5.6s2.51-5.6,5.6-5.6s5.6,2.51,5.6,5.6
			S104.79,367.64,101.71,367.64z"/>
		<path fill="#FFFFFF" d="M387.07,351.44c-5.84,0-10.6,4.76-10.6,10.6s4.76,10.6,10.6,10.6s10.6-4.76,10.6-10.6
			S392.92,351.44,387.07,351.44z M387.07,367.64c-3.09,0-5.6-2.51-5.6-5.6s2.51-5.6,5.6-5.6s5.6,2.51,5.6,5.6
			S390.16,367.64,387.07,367.64z"/>
		<path fill="#FFFFFF" d="M142.5,392.24c-5.84,0-10.6,4.76-10.6,10.6c0,5.84,4.75,10.6,10.6,10.6s10.6-4.76,10.6-10.6
			C153.1,397,148.35,392.24,142.5,392.24z M142.5,408.44c-3.09,0-5.6-2.51-5.6-5.6c0-3.09,2.51-5.6,5.6-5.6s5.6,2.51,5.6,5.6
			C148.1,405.93,145.59,408.44,142.5,408.44z"/>
		<path fill="#FFFFFF" d="M387.07,392.24c-5.84,0-10.6,4.76-10.6,10.6c0,5.84,4.76,10.6,10.6,10.6s10.6-4.76,10.6-10.6
			C397.67,397,392.92,392.24,387.07,392.24z M387.07,408.44c-3.09,0-5.6-2.51-5.6-5.6c0-3.09,2.51-5.6,5.6-5.6s5.6,2.51,5.6,5.6
			C392.67,405.93,390.16,408.44,387.07,408.44z"/>
		<path fill="#FFFFFF" d="M428.08,392.24c-5.84,0-10.6,4.76-10.6,10.6c0,5.84,4.75,10.6,10.6,10.6s10.6-4.76,10.6-10.6
			C438.68,397,433.93,392.24,428.08,392.24z M428.08,408.44c-3.09,0-5.6-2.51-5.6-5.6c0-3.09,2.51-5.6,5.6-5.6s5.6,2.51,5.6,5.6
			C433.68,405.93,431.17,408.44,428.08,408.44z"/>
		<path fill="#FFFFFF" d="M101.71,433.34c-5.84,0-10.6,4.76-10.6,10.6s4.76,10.6,10.6,10.6s10.6-4.76,10.6-10.6
			S107.55,433.34,101.71,433.34z M101.71,449.54c-3.09,0-5.6-2.51-5.6-5.6s2.51-5.6,5.6-5.6s5.6,2.51,5.6,5.6
			S104.79,449.54,101.71,449.54z"/>
		<path fill="#FFFFFF" d="M264.89,473.84c-5.84,0-10.6,4.76-10.6,10.6c0,5.84,4.76,10.6,10.6,10.6s10.6-4.76,10.6-10.6
			C275.49,478.59,270.74,473.84,264.89,473.84z M264.89,490.04c-3.09,0-5.6-2.51-5.6-5.6c0-3.09,2.51-5.6,5.6-5.6s5.6,2.51,5.6,5.6
			C270.49,487.52,267.98,490.04,264.89,490.04z"/>
		<path fill="#FFFFFF" d="M346.49,514.63c-5.84,0-10.6,4.76-10.6,10.6c0,5.85,4.75,10.6,10.6,10.6s10.6-4.76,10.6-10.6
			C357.09,519.39,352.33,514.63,346.49,514.63z M346.49,530.83c-3.09,0-5.6-2.51-5.6-5.6c0-3.09,2.51-5.6,5.6-5.6s5.6,2.51,5.6,5.6
			C352.09,528.32,349.58,530.83,346.49,530.83z"/>
		<path fill="#FFFFFF" d="M101.71,147.49c-5.84,0-10.6,4.76-10.6,10.6c0,5.85,4.76,10.6,10.6,10.6s10.6-4.76,10.6-10.6
			C112.31,152.24,107.55,147.49,101.71,147.49z M101.71,163.69c-3.09,0-5.6-2.51-5.6-5.6c0-3.09,2.51-5.6,5.6-5.6s5.6,2.51,5.6,5.6
			C107.31,161.17,104.79,163.69,101.71,163.69z"/>
		<path fill="#FFFFFF" d="M387.07,106.69c-5.84,0-10.6,4.76-10.6,10.6c0,5.85,4.76,10.6,10.6,10.6s10.6-4.76,10.6-10.6
			C397.67,111.44,392.92,106.69,387.07,106.69z M387.07,122.89c-3.09,0-5.6-2.51-5.6-5.6c0-3.09,2.51-5.6,5.6-5.6s5.6,2.51,5.6,5.6
			C392.67,120.38,390.16,122.89,387.07,122.89z"/>
		<path fill="#FFFFFF" d="M468.88,106.69c-5.84,0-10.6,4.76-10.6,10.6c0,5.85,4.76,10.6,10.6,10.6s10.6-4.76,10.6-10.6
			C479.48,111.44,474.73,106.69,468.88,106.69z M468.88,122.89c-3.09,0-5.6-2.51-5.6-5.6c0-3.09,2.51-5.6,5.6-5.6s5.6,2.51,5.6,5.6
			C474.48,120.38,471.97,122.89,468.88,122.89z"/>
		<path fill="#FFFFFF" d="M428.08,65.89c-5.84,0-10.6,4.76-10.6,10.6c0,5.84,4.75,10.6,10.6,10.6s10.6-4.76,10.6-10.6
			C438.68,70.65,433.93,65.89,428.08,65.89z M428.08,82.09c-3.09,0-5.6-2.51-5.6-5.6c0-3.09,2.51-5.6,5.6-5.6s5.6,2.51,5.6,5.6
			C433.68,79.58,431.17,82.09,428.08,82.09z"/>
		<path fill="#FFFFFF" d="M142.5,25.09c-5.84,0-10.6,4.76-10.6,10.6c0,5.84,4.75,10.6,10.6,10.6s10.6-4.76,10.6-10.6
			C153.1,29.85,148.35,25.09,142.5,25.09z M142.5,41.29c-3.09,0-5.6-2.51-5.6-5.6c0-3.09,2.51-5.6,5.6-5.6s5.6,2.51,5.6,5.6
			C148.1,38.78,145.59,41.29,142.5,41.29z"/>
		<path fill="#FFFFFF" d="M509.68,25.09c-5.84,0-10.6,4.76-10.6,10.6c0,5.84,4.75,10.6,10.6,10.6s10.6-4.76,10.6-10.6
			C520.28,29.85,515.52,25.09,509.68,25.09z M509.68,41.29c-3.09,0-5.6-2.51-5.6-5.6c0-3.09,2.51-5.6,5.6-5.6s5.6,2.51,5.6,5.6
			C515.28,38.78,512.77,41.29,509.68,41.29z"/>
		<path fill="#FFFFFF" d="M264.89,106.69c-5.84,0-10.6,4.76-10.6,10.6c0,5.85,4.76,10.6,10.6,10.6s10.6-4.76,10.6-10.6
			C275.49,111.44,270.74,106.69,264.89,106.69z M264.89,122.89c-3.09,0-5.6-2.51-5.6-5.6c0-3.09,2.51-5.6,5.6-5.6s5.6,2.51,5.6,5.6
			C270.49,120.38,267.98,122.89,264.89,122.89z"/>
		<path fill="#FFFFFF" d="M223.88,147.49c-5.84,0-10.6,4.76-10.6,10.6c0,5.85,4.76,10.6,10.6,10.6s10.6-4.76,10.6-10.6
			C234.48,152.24,229.73,147.49,223.88,147.49z M223.88,163.69c-3.09,0-5.6-2.51-5.6-5.6c0-3.09,2.51-5.6,5.6-5.6s5.6,2.51,5.6,5.6
			C229.48,161.17,226.97,163.69,223.88,163.69z"/>
		<path fill="#FFFFFF" d="M223.88,433.34c-5.84,0-10.6,4.76-10.6,10.6s4.76,10.6,10.6,10.6s10.6-4.76,10.6-10.6
			S229.73,433.34,223.88,433.34z M223.88,449.54c-3.09,0-5.6-2.51-5.6-5.6s2.51-5.6,5.6-5.6s5.6,2.51,5.6,5.6
			S226.97,449.54,223.88,449.54z"/>
	</g>
	<g>
		<path fill="#5E75FF" d="M183.3,351.44c-5.84,0-10.6,4.76-10.6,10.6s4.76,10.6,10.6,10.6s10.6-4.76,10.6-10.6
			S189.14,351.44,183.3,351.44z M183.3,367.64c-3.09,0-5.6-2.51-5.6-5.6s2.51-5.6,5.6-5.6s5.6,2.51,5.6,5.6
			S186.39,367.64,183.3,367.64z"/>
		<path fill="#5E75FF" d="M183.3,168.69c5.84,0,10.6-4.76,10.6-10.6c0-5.84-4.75-10.6-10.6-10.6s-10.6,4.76-10.6,10.6
			C172.7,163.93,177.46,168.69,183.3,168.69z M183.3,152.49c3.09,0,5.6,2.51,5.6,5.6c0,3.09-2.51,5.6-5.6,5.6s-5.6-2.51-5.6-5.6
			C177.7,155,180.21,152.49,183.3,152.49z"/>
		<path fill="#5E75FF" d="M387.07,168.69c5.84,0,10.6-4.76,10.6-10.6c0-5.84-4.75-10.6-10.6-10.6s-10.6,4.76-10.6,10.6
			C376.47,163.93,381.23,168.69,387.07,168.69z M387.07,152.49c3.09,0,5.6,2.51,5.6,5.6c0,3.09-2.51,5.6-5.6,5.6s-5.6-2.51-5.6-5.6
			C381.47,155,383.98,152.49,387.07,152.49z"/>
		<path fill="#5E75FF" d="M305.69,250.25c5.84,0,10.6-4.76,10.6-10.6c0-5.84-4.76-10.6-10.6-10.6s-10.6,4.76-10.6,10.6
			C295.09,245.5,299.85,250.25,305.69,250.25z M305.69,234.05c3.09,0,5.6,2.51,5.6,5.6c0,3.09-2.51,5.6-5.6,5.6s-5.6-2.51-5.6-5.6
			C300.09,236.56,302.6,234.05,305.69,234.05z"/>
		<path fill="#5E75FF" d="M387.07,310.65c-5.84,0-10.6,4.76-10.6,10.6s4.76,10.6,10.6,10.6s10.6-4.76,10.6-10.6
			S392.92,310.65,387.07,310.65z M387.07,326.85c-3.09,0-5.6-2.51-5.6-5.6s2.51-5.6,5.6-5.6s5.6,2.51,5.6,5.6
			S390.16,326.85,387.07,326.85z"/>
		<path fill="#5E75FF" d="M428.08,269.85c-4.98,0-9.16,3.46-10.29,8.1h-20.43c-1.13-4.64-5.31-8.1-10.29-8.1s-9.16,3.46-10.29,8.1
			h-20c-1.13-4.64-5.31-8.1-10.29-8.1c-5.84,0-10.6,4.76-10.6,10.6c0,2.02,0.58,3.9,1.56,5.51l-26.25,26.25
			c-1.61-0.98-3.49-1.56-5.51-1.56s-3.9,0.58-5.51,1.56l-26.25-26.25c0.98-1.61,1.56-3.49,1.56-5.51c0-5.84-4.75-10.6-10.6-10.6
			c-2.03,0-3.92,0.58-5.53,1.57l-26.43-26.29c0.97-1.6,1.55-3.47,1.55-5.48c0-5.84-4.76-10.6-10.6-10.6s-10.6,4.76-10.6,10.6
			c0,2.03,0.58,3.92,1.57,5.53l-26.07,26.21c-1.6-0.97-3.47-1.54-5.48-1.54c-4.98,0-9.16,3.46-10.29,8.1h-20.22
			c-1.13-4.64-5.31-8.1-10.29-8.1c-5.84,0-10.6,4.76-10.6,10.6s4.75,10.6,10.6,10.6c4.98,0,9.16-3.46,10.29-8.1h20.22
			c1.13,4.64,5.31,8.1,10.29,8.1c5.84,0,10.6-4.76,10.6-10.6c0-2.03-0.58-3.92-1.57-5.53l26.07-26.21c1.6,0.97,3.47,1.54,5.48,1.54
			c2.03,0,3.92-0.58,5.53-1.57l26.43,26.29c-0.97,1.6-1.54,3.47-1.54,5.48c0,5.84,4.76,10.6,10.6,10.6c2.02,0,3.9-0.58,5.5-1.56
			l26.25,26.25c-0.98,1.61-1.56,3.49-1.56,5.51c0,5.84,4.76,10.6,10.6,10.6s10.6-4.76,10.6-10.6c0-2.02-0.58-3.9-1.56-5.51
			l26.25-26.25c1.61,0.98,3.49,1.56,5.51,1.56c4.98,0,9.16-3.46,10.29-8.1h20c1.13,4.64,5.31,8.1,10.29,8.1s9.16-3.46,10.29-8.1
			h20.43c1.13,4.64,5.31,8.1,10.29,8.1c5.84,0,10.6-4.76,10.6-10.6S433.93,269.85,428.08,269.85z M428.08,286.05
			c-3.09,0-5.6-2.51-5.6-5.6s2.51-5.6,5.6-5.6s5.6,2.51,5.6,5.6S431.17,286.05,428.08,286.05z M387.07,286.05
			c-3.09,0-5.6-2.51-5.6-5.6s2.51-5.6,5.6-5.6s5.6,2.51,5.6,5.6S390.16,286.05,387.07,286.05z M346.49,286.05
			c-3.09,0-5.6-2.51-5.6-5.6s2.51-5.6,5.6-5.6s5.6,2.51,5.6,5.6S349.58,286.05,346.49,286.05z M305.69,326.85
			c-3.09,0-5.6-2.51-5.6-5.6s2.51-5.6,5.6-5.6s5.6,2.51,5.6,5.6S308.78,326.85,305.69,326.85z M270.49,280.45
			c0,3.09-2.51,5.6-5.6,5.6s-5.6-2.51-5.6-5.6s2.51-5.6,5.6-5.6S270.49,277.36,270.49,280.45z M223.88,234.05
			c3.09,0,5.6,2.51,5.6,5.6c0,3.09-2.51,5.6-5.6,5.6s-5.6-2.51-5.6-5.6C218.28,236.56,220.79,234.05,223.88,234.05z M183.3,286.05
			c-3.09,0-5.6-2.51-5.6-5.6s2.51-5.6,5.6-5.6s5.6,2.51,5.6,5.6S186.39,286.05,183.3,286.05z M142.5,286.05
			c-3.09,0-5.6-2.51-5.6-5.6s2.51-5.6,5.6-5.6s5.6,2.51,5.6,5.6S145.59,286.05,142.5,286.05z"/>
		<path fill="#5E75FF" d="M101.71,229.05c-5.84,0-10.6,4.76-10.6,10.6c0,5.85,4.76,10.6,10.6,10.6s10.6-4.76,10.6-10.6
			C112.31,233.81,107.55,229.05,101.71,229.05z M101.71,245.25c-3.09,0-5.6-2.51-5.6-5.6c0-3.09,2.51-5.6,5.6-5.6s5.6,2.51,5.6,5.6
			C107.31,242.74,104.79,245.25,101.71,245.25z"/>
	</g>
	<g>
		<path fill="#283583" d="M356.78,196.36c-1.13-4.64-5.31-8.1-10.29-8.1c-5.84,0-10.6,4.76-10.6,10.6c0,5.85,4.75,10.6,10.6,10.6
			c4.98,0,9.16-3.46,10.29-8.1h20c1.13,4.64,5.31,8.1,10.29,8.1s9.16-3.46,10.29-8.1h20.43c1.13,4.64,5.31,8.1,10.29,8.1
			c5.84,0,10.6-4.76,10.6-10.6c0-5.84-4.76-10.6-10.6-10.6c-4.98,0-9.16,3.46-10.29,8.1h-20.43c-1.13-4.64-5.31-8.1-10.29-8.1
			s-9.16,3.46-10.29,8.1H356.78z M346.49,204.46c-3.09,0-5.6-2.51-5.6-5.6c0-3.09,2.51-5.6,5.6-5.6s5.6,2.51,5.6,5.6
			C352.09,201.94,349.58,204.46,346.49,204.46z M387.07,193.26c3.09,0,5.6,2.51,5.6,5.6c0,3.09-2.51,5.6-5.6,5.6s-5.6-2.51-5.6-5.6
			C381.47,195.77,383.98,193.26,387.07,193.26z M428.08,193.26c3.09,0,5.6,2.51,5.6,5.6c0,3.09-2.51,5.6-5.6,5.6s-5.6-2.51-5.6-5.6
			C422.48,195.77,425,193.26,428.08,193.26z"/>
		<path fill="#283583" d="M152.79,196.36c-1.13-4.64-5.31-8.1-10.29-8.1c-5.84,0-10.6,4.76-10.6,10.6c0,5.85,4.75,10.6,10.6,10.6
			c4.98,0,9.16-3.46,10.29-8.1h20.22c1.13,4.64,5.31,8.1,10.29,8.1c5.84,0,10.6-4.76,10.6-10.6c0-5.84-4.75-10.6-10.6-10.6
			c-4.98,0-9.16,3.46-10.29,8.1H152.79z M142.5,204.46c-3.09,0-5.6-2.51-5.6-5.6c0-3.09,2.51-5.6,5.6-5.6s5.6,2.51,5.6,5.6
			C148.1,201.94,145.59,204.46,142.5,204.46z M183.3,193.26c3.09,0,5.6,2.51,5.6,5.6c0,3.09-2.51,5.6-5.6,5.6s-5.6-2.51-5.6-5.6
			C177.7,195.77,180.21,193.26,183.3,193.26z"/>
		<path fill="#283583" d="M428.08,229.05c-4.98,0-9.16,3.46-10.29,8.1h-20.43c-1.13-4.64-5.31-8.1-10.29-8.1s-9.16,3.46-10.29,8.1
			h-20c-1.13-4.64-5.31-8.1-10.29-8.1c-5.84,0-10.6,4.76-10.6,10.6c0,2.02,0.58,3.9,1.56,5.51l-26.25,26.25
			c-1.61-0.98-3.49-1.56-5.51-1.56c-2.02,0-3.9,0.58-5.51,1.56l-26.25-26.25c0.98-1.61,1.56-3.49,1.56-5.51
			c0-5.84-4.75-10.6-10.6-10.6c-2.03,0-3.92,0.58-5.53,1.57l-26.43-26.29c0.97-1.6,1.54-3.47,1.54-5.48c0-5.84-4.76-10.6-10.6-10.6
			s-10.6,4.76-10.6,10.6c0,2.03,0.58,3.92,1.57,5.53l-26.07,26.21c-1.6-0.97-3.47-1.54-5.48-1.54c-4.98,0-9.16,3.46-10.29,8.1
			h-20.22c-1.13-4.64-5.31-8.1-10.29-8.1c-5.84,0-10.6,4.76-10.6,10.6c0,2.02,0.58,3.91,1.57,5.52l-26.26,26.24
			c-1.61-0.98-3.49-1.56-5.51-1.56c-5.84,0-10.6,4.76-10.6,10.6s4.76,10.6,10.6,10.6s10.6-4.76,10.6-10.6c0-2.02-0.58-3.9-1.56-5.5
			l26.26-26.24c1.6,0.98,3.48,1.55,5.49,1.55c4.98,0,9.16-3.46,10.29-8.1h20.22c1.13,4.64,5.31,8.1,10.29,8.1
			c5.84,0,10.6-4.76,10.6-10.6c0-2.03-0.58-3.92-1.57-5.53l26.07-26.21c1.6,0.97,3.47,1.54,5.48,1.54c2.03,0,3.92-0.58,5.53-1.57
			l26.43,26.29c-0.97,1.6-1.54,3.47-1.54,5.48c0,5.85,4.76,10.6,10.6,10.6c2.02,0,3.9-0.58,5.51-1.56l26.25,26.25
			c-0.98,1.61-1.56,3.49-1.56,5.51c0,5.84,4.76,10.6,10.6,10.6s10.6-4.76,10.6-10.6c0-2.02-0.58-3.9-1.56-5.51l26.25-26.25
			c1.61,0.98,3.49,1.56,5.51,1.56c4.98,0,9.16-3.46,10.29-8.1h20c1.13,4.64,5.31,8.1,10.29,8.1s9.16-3.46,10.29-8.1h20.43
			c1.13,4.64,5.31,8.1,10.29,8.1c5.84,0,10.6-4.76,10.6-10.6C438.68,233.81,433.93,229.05,428.08,229.05z M428.08,245.25
			c-3.09,0-5.6-2.51-5.6-5.6c0-3.09,2.51-5.6,5.6-5.6s5.6,2.51,5.6,5.6C433.68,242.74,431.17,245.25,428.08,245.25z M387.07,245.25
			c-3.09,0-5.6-2.51-5.6-5.6c0-3.09,2.51-5.6,5.6-5.6s5.6,2.51,5.6,5.6C392.67,242.74,390.16,245.25,387.07,245.25z M346.49,245.25
			c-3.09,0-5.6-2.51-5.6-5.6c0-3.09,2.51-5.6,5.6-5.6s5.6,2.51,5.6,5.6C352.09,242.74,349.58,245.25,346.49,245.25z M305.69,286.05
			c-3.09,0-5.6-2.51-5.6-5.6s2.51-5.6,5.6-5.6s5.6,2.51,5.6,5.6S308.78,286.05,305.69,286.05z M270.49,239.65
			c0,3.09-2.51,5.6-5.6,5.6s-5.6-2.51-5.6-5.6c0-3.09,2.51-5.6,5.6-5.6S270.49,236.56,270.49,239.65z M223.88,193.26
			c3.09,0,5.6,2.51,5.6,5.6c0,3.09-2.51,5.6-5.6,5.6s-5.6-2.51-5.6-5.6C218.28,195.77,220.79,193.26,223.88,193.26z M183.3,245.25
			c-3.09,0-5.6-2.51-5.6-5.6c0-3.09,2.51-5.6,5.6-5.6s5.6,2.51,5.6,5.6C188.9,242.74,186.39,245.25,183.3,245.25z M142.5,245.25
			c-3.09,0-5.6-2.51-5.6-5.6c0-3.09,2.51-5.6,5.6-5.6s5.6,2.51,5.6,5.6C148.1,242.74,145.59,245.25,142.5,245.25z M101.71,286.05
			c-3.09,0-5.6-2.51-5.6-5.6s2.51-5.6,5.6-5.6s5.6,2.51,5.6,5.6S104.79,286.05,101.71,286.05z"/>
		<path fill="#283583" d="M101.71,209.46c5.84,0,10.6-4.76,10.6-10.6c0-2.02-0.58-3.9-1.56-5.5L137,167.13
			c1.61,0.98,3.49,1.56,5.51,1.56c5.84,0,10.6-4.76,10.6-10.6c0-5.84-4.76-10.6-10.6-10.6s-10.6,4.76-10.6,10.6
			c0,2.02,0.58,3.9,1.56,5.5l-26.25,26.22c-1.61-0.98-3.49-1.56-5.51-1.56c-5.84,0-10.6,4.76-10.6,10.6
			C91.1,204.7,95.86,209.46,101.71,209.46z M101.71,193.26c3.09,0,5.6,2.51,5.6,5.6c0,3.09-2.51,5.6-5.6,5.6s-5.6-2.51-5.6-5.6
			C96.1,195.77,98.62,193.26,101.71,193.26z M142.5,152.49c3.09,0,5.6,2.51,5.6,5.6c0,3.09-2.51,5.6-5.6,5.6s-5.6-2.51-5.6-5.6
			C136.9,155,139.41,152.49,142.5,152.49z"/>
		<path fill="#283583" d="M346.49,351.44c-5.84,0-10.6,4.76-10.6,10.6c0,2.02,0.58,3.9,1.56,5.51L311.2,393.8
			c-1.61-0.98-3.49-1.56-5.51-1.56c-2.02,0-3.9,0.58-5.51,1.56l-26.25-26.25c0.98-1.61,1.56-3.49,1.56-5.51
			c0-5.84-4.75-10.6-10.6-10.6c-2.03,0-3.92,0.58-5.53,1.58l-26.44-26.27c0.98-1.61,1.56-3.48,1.56-5.5c0-5.84-4.76-10.6-10.6-10.6
			s-10.6,4.76-10.6,10.6s4.76,10.6,10.6,10.6c2.02,0,3.9-0.58,5.51-1.56l26.44,26.28c-0.97,1.6-1.54,3.47-1.54,5.48
			c0,5.84,4.76,10.6,10.6,10.6c2.02,0,3.9-0.58,5.51-1.56l26.25,26.25c-0.98,1.61-1.56,3.49-1.56,5.51c0,5.84,4.76,10.6,10.6,10.6
			s10.6-4.76,10.6-10.6c0-2.02-0.58-3.9-1.56-5.51l26.25-26.25c1.61,0.98,3.49,1.56,5.51,1.56c5.84,0,10.6-4.76,10.6-10.6
			S352.33,351.44,346.49,351.44z M346.49,367.64c-3.09,0-5.6-2.51-5.6-5.6s2.51-5.6,5.6-5.6s5.6,2.51,5.6,5.6
			S349.58,367.64,346.49,367.64z M305.69,408.44c-3.09,0-5.6-2.51-5.6-5.6c0-3.09,2.51-5.6,5.6-5.6s5.6,2.51,5.6,5.6
			C311.29,405.93,308.78,408.44,305.69,408.44z M270.49,362.04c0,3.09-2.51,5.6-5.6,5.6s-5.6-2.51-5.6-5.6s2.51-5.6,5.6-5.6
			S270.49,358.96,270.49,362.04z M223.88,315.65c3.09,0,5.6,2.51,5.6,5.6s-2.51,5.6-5.6,5.6s-5.6-2.51-5.6-5.6
			S220.79,315.65,223.88,315.65z"/>
		<path fill="#283583" d="M305.69,209.46c5.84,0,10.6-4.76,10.6-10.6c0-2.02-0.58-3.9-1.56-5.5l26.25-26.23
			c1.61,0.98,3.49,1.56,5.51,1.56c5.84,0,10.6-4.76,10.6-10.6c0-5.84-4.76-10.6-10.6-10.6s-10.6,4.76-10.6,10.6
			c0,2.02,0.58,3.9,1.56,5.5l-26.25,26.23c-1.61-0.98-3.49-1.56-5.51-1.56c-5.84,0-10.6,4.76-10.6,10.6
			C295.09,204.7,299.85,209.46,305.69,209.46z M305.69,193.26c3.09,0,5.6,2.51,5.6,5.6c0,3.09-2.51,5.6-5.6,5.6s-5.6-2.51-5.6-5.6
			C300.09,195.77,302.6,193.26,305.69,193.26z M346.49,152.49c3.09,0,5.6,2.51,5.6,5.6c0,3.09-2.51,5.6-5.6,5.6s-5.6-2.51-5.6-5.6
			C340.89,155,343.4,152.49,346.49,152.49z"/>
		<path fill="#283583" d="M264.89,392.24c-5.84,0-10.6,4.76-10.6,10.6c0,5.84,4.76,10.6,10.6,10.6s10.6-4.76,10.6-10.6
			C275.49,397,270.74,392.24,264.89,392.24z M264.89,408.44c-3.09,0-5.6-2.51-5.6-5.6c0-3.09,2.51-5.6,5.6-5.6s5.6,2.51,5.6,5.6
			C270.49,405.93,267.98,408.44,264.89,408.44z"/>
		<path fill="#283583" d="M264.89,433.34c-1.94,0-3.76,0.53-5.33,1.45l-26.64-26.45c0.98-1.61,1.56-3.48,1.56-5.5
			c0-4.98-3.46-9.16-8.1-10.29v-20.22c4.64-1.13,8.1-5.31,8.1-10.29c0-5.84-4.76-10.6-10.6-10.6s-10.6,4.76-10.6,10.6
			c0,4.98,3.46,9.16,8.1,10.29v20.22c-4.64,1.13-8.1,5.31-8.1,10.29c0,5.84,4.76,10.6,10.6,10.6c2.02,0,3.9-0.58,5.51-1.56
			l26.57,26.38c-1.05,1.65-1.67,3.59-1.67,5.69c0,5.84,4.76,10.6,10.6,10.6s10.6-4.76,10.6-10.6S270.74,433.34,264.89,433.34z
			 M264.89,449.54c-3.09,0-5.6-2.51-5.6-5.6s2.51-5.6,5.6-5.6s5.6,2.51,5.6,5.6S267.98,449.54,264.89,449.54z M223.88,356.44
			c3.09,0,5.6,2.51,5.6,5.6s-2.51,5.6-5.6,5.6s-5.6-2.51-5.6-5.6S220.79,356.44,223.88,356.44z M229.48,402.84
			c0,3.09-2.51,5.6-5.6,5.6s-5.6-2.51-5.6-5.6c0-3.09,2.51-5.6,5.6-5.6S229.48,399.75,229.48,402.84z"/>
		<path fill="#283583" d="M346.49,310.65c-5.84,0-10.6,4.76-10.6,10.6c0,2.02,0.58,3.9,1.56,5.51L311.2,353
			c-1.64-1.01-3.53-1.55-5.51-1.55c-1.98,0-3.87,0.55-5.51,1.55l-26.24-26.24c1.01-1.64,1.55-3.53,1.55-5.51
			c0-5.84-4.75-10.6-10.6-10.6c-1.98,0-3.88,0.57-5.53,1.58l-26.43-26.29c0.97-1.6,1.55-3.47,1.55-5.48c0-5.84-4.76-10.6-10.6-10.6
			s-10.6,4.76-10.6,10.6c0,2.03,0.58,3.92,1.57,5.53l-26.07,26.21c-1.6-0.97-3.47-1.54-5.48-1.54c-4.98,0-9.16,3.46-10.29,8.1
			h-20.22c-1.13-4.64-5.31-8.1-10.29-8.1c-5.84,0-10.6,4.76-10.6,10.6s4.75,10.6,10.6,10.6c4.98,0,9.16-3.46,10.29-8.1h20.22
			c1.13,4.64,5.31,8.1,10.29,8.1c5.84,0,10.6-4.76,10.6-10.6c0-2.03-0.58-3.92-1.57-5.53l26.07-26.21c1.6,0.97,3.47,1.54,5.48,1.54
			c2.03,0,3.92-0.58,5.53-1.57l26.42,26.28c-1,1.65-1.54,3.54-1.54,5.49c0,5.84,4.76,10.6,10.6,10.6c1.98,0,3.87-0.55,5.51-1.55
			l26.24,26.24c-1.01,1.65-1.55,3.53-1.55,5.51c0,5.84,4.76,10.6,10.6,10.6s10.6-4.76,10.6-10.6c0-1.98-0.55-3.87-1.55-5.51
			l26.25-26.25c1.61,0.98,3.49,1.56,5.51,1.56c5.84,0,10.6-4.76,10.6-10.6S352.33,310.65,346.49,310.65z M346.49,326.85
			c-3.09,0-5.6-2.51-5.6-5.6s2.51-5.6,5.6-5.6s5.6,2.51,5.6,5.6S349.58,326.85,346.49,326.85z M305.69,367.64
			c-3.09,0-5.6-2.51-5.6-5.6c0-1.5,0.58-2.9,1.64-3.96c1.06-1.06,2.46-1.64,3.96-1.64s2.9,0.58,3.96,1.64
			c1.06,1.06,1.64,2.46,1.64,3.96C311.29,365.13,308.78,367.64,305.69,367.64z M270.49,321.25c0,1.5-0.58,2.9-1.64,3.96
			c-1.06,1.06-2.46,1.64-3.96,1.64c-3.09,0-5.6-2.51-5.6-5.6c0-1.14,0.34-2.24,0.98-3.17c1.05-1.52,2.78-2.43,4.62-2.43
			C267.98,315.65,270.49,318.16,270.49,321.25z M223.88,274.85c3.09,0,5.6,2.51,5.6,5.6s-2.51,5.6-5.6,5.6s-5.6-2.51-5.6-5.6
			S220.79,274.85,223.88,274.85z M183.3,326.85c-3.09,0-5.6-2.51-5.6-5.6s2.51-5.6,5.6-5.6s5.6,2.51,5.6,5.6
			S186.39,326.85,183.3,326.85z M142.5,326.85c-3.09,0-5.6-2.51-5.6-5.6s2.51-5.6,5.6-5.6s5.6,2.51,5.6,5.6
			S145.59,326.85,142.5,326.85z"/>
	</g>
</g>
</svg>
