<svg id="Layer_1" data-name="Layer 1" xmlns="http://www.w3.org/2000/svg" xmlns:xlink="http://www.w3.org/1999/xlink" viewBox="0 0 600 450"><defs><style>.cls-1,.cls-2{opacity:0.2;}.cls-1{fill:url(#linear-gradient);}.cls-2{fill:url(#linear-gradient-2);}.cls-3{fill:#0562e8;}.cls-4{fill:#f13624;}.cls-5{fill:#c92820;}.cls-6{fill:#3dba85;}.cls-7{fill:#359366;}.cls-8{fill:#d1d3d4;}.cls-9{fill:#bcbec0;}.cls-10{opacity:0.25;}.cls-11{fill:#f99316;}.cls-12{fill:#e6e6e6;}.cls-13{fill:#c97a24;}.cls-14,.cls-18{fill:#fff;}.cls-14{opacity:0.5;}.cls-15{fill:#939598;}.cls-16{fill:#0b4dad;}.cls-17{fill:#398aea;}.cls-19,.cls-20,.cls-21{fill:none;stroke-miterlimit:10;stroke-width:1.04px;}.cls-19{stroke:#398aea;}.cls-20{stroke:#f99316;}.cls-21{stroke:#3dba85;}</style><linearGradient id="linear-gradient" x1="-58.07" y1="238.76" x2="294.89" y2="234.84" gradientUnits="userSpaceOnUse"><stop offset="0" stop-color="#d1d3d4" stop-opacity="0"/><stop offset="1" stop-color="#bcbec0"/></linearGradient><linearGradient id="linear-gradient-2" x1="251.38" y1="235.74" x2="562.92" y2="235.74" xlink:href="#linear-gradient"/></defs><title>machine-learning_illustration</title><path class="cls-1" d="M366.8,244.32,221.52,412.4a9.51,9.51,0,0,1-14.83,0L61.41,244.32a13.51,13.51,0,0,1,0-17.16L206.69,59.08a9.51,9.51,0,0,1,14.83,0L366.8,227.16A13.51,13.51,0,0,1,366.8,244.32Z"/><path class="cls-2" d="M559.85,244.32,414.57,412.4a9.52,9.52,0,0,1-14.84,0L254.45,244.32a13.53,13.53,0,0,1,0-17.16L399.73,59.08a9.52,9.52,0,0,1,14.84,0L559.85,227.16A13.53,13.53,0,0,1,559.85,244.32Z"/><polygon class="cls-3" points="413.7 144.99 411.16 144.99 410.36 136.89 410.89 133.62 413.97 133.62 414.51 136.89 413.7 144.99"/><polygon class="cls-3" points="411.16 154.41 413.7 154.41 414.51 162.51 413.97 165.78 410.89 165.78 410.36 162.51 411.16 154.41"/><polygon class="cls-3" points="417.14 150.97 417.14 148.43 425.24 147.63 428.52 148.16 428.52 151.24 425.24 151.78 417.14 150.97"/><polygon class="cls-3" points="407.72 148.43 407.72 150.97 399.62 151.78 396.35 151.24 396.35 148.16 399.62 147.63 407.72 148.43"/><path class="cls-4" d="M165.77,277.47a1.7,1.7,0,0,1-.71,2.28l-2.94,1.54a13.69,13.69,0,0,0-17.75-5.77L143,272.87a1.67,1.67,0,0,1,.7-2.27,16.39,16.39,0,0,1,22.08,6.87Z"/><path class="cls-5" d="M162.12,281.29l-10,5.28a1.7,1.7,0,0,1-2.28-.71l-5.43-10.34a13.69,13.69,0,0,1,17.75,5.77Z"/><path class="cls-6" d="M450.4,295a.94.94,0,0,1,.74,1.08l-.34,1.8a7.5,7.5,0,0,0-8.55,5.65l-1.61-.31a.94.94,0,0,1-.74-1.09A9,9,0,0,1,450.4,295Z"/><path class="cls-7" d="M450.8,297.85,449.63,304a1,1,0,0,1-1.09.74l-6.29-1.2a7.5,7.5,0,0,1,8.55-5.65Z"/><rect class="cls-8" x="132.4" y="361.12" width="413.56" height="3.88"/><rect class="cls-9" x="65.67" y="361.12" width="66.72" height="3.88"/><g class="cls-10"><rect class="cls-6" x="434.51" y="68.83" width="65.84" height="7.23"/><rect class="cls-3" x="456.86" y="82.87" width="65.84" height="7.23"/><rect class="cls-3" x="434.51" y="96.92" width="114.73" height="7.23"/><rect class="cls-11" x="447.92" y="110.97" width="45.98" height="7.23"/><rect class="cls-3" x="510.5" y="110.97" width="45.98" height="7.23"/><rect class="cls-6" x="434.51" y="125.01" width="83.65" height="7.23"/><rect class="cls-3" x="462.82" y="139.06" width="65.84" height="7.23"/><rect class="cls-12" x="447.92" y="152.97" width="68.33" height="7.5"/><rect class="cls-11" x="533.57" y="152.97" width="20.57" height="7.5"/><rect class="cls-12" x="434.51" y="167.16" width="65.84" height="7.23"/><rect class="cls-12" x="516.32" y="167.16" width="25.47" height="7.23"/><rect class="cls-3" x="467.43" y="181.2" width="65.84" height="7.23"/><rect class="cls-11" x="452.32" y="195.25" width="65.84" height="7.23"/><rect class="cls-12" x="537.04" y="195.25" width="10.29" height="7.23"/><rect class="cls-6" x="434.51" y="209.3" width="50.73" height="7.23"/><rect class="cls-3" x="485.24" y="223.35" width="58.18" height="7.23"/></g><g class="cls-10"><rect class="cls-6" x="61.55" y="225.02" width="67.34" height="7.4"/><rect class="cls-3" x="84.41" y="210.65" width="67.34" height="7.4"/><rect class="cls-3" x="61.55" y="196.29" width="117.34" height="7.4"/><rect class="cls-11" x="75.26" y="181.92" width="47.02" height="7.4"/><rect class="cls-3" x="139.27" y="181.92" width="47.02" height="7.4"/><rect class="cls-6" x="61.55" y="167.55" width="85.55" height="7.4"/><rect class="cls-3" x="90.5" y="153.19" width="67.34" height="7.4"/><rect class="cls-12" x="75.26" y="138.68" width="69.88" height="7.68"/><rect class="cls-11" x="162.86" y="138.68" width="21.03" height="7.68"/><rect class="cls-12" x="61.55" y="124.45" width="67.34" height="7.4"/><rect class="cls-12" x="145.22" y="124.45" width="26.05" height="7.4"/><rect class="cls-3" x="95.22" y="110.09" width="67.34" height="7.4"/><rect class="cls-11" x="79.76" y="95.72" width="67.34" height="7.4"/><rect class="cls-12" x="166.41" y="95.72" width="10.52" height="7.4"/><rect class="cls-6" x="61.55" y="81.36" width="51.88" height="7.4"/><rect class="cls-3" x="113.43" y="66.99" width="59.5" height="7.4"/></g><polygon class="cls-11" points="389.48 60.98 389.48 98.46 353.11 98.46 353.11 50.31 378.81 50.31 378.81 50.32 389.47 60.98 389.48 60.98"/><polygon class="cls-13" points="378.81 60.98 378.81 50.32 378.81 50.31 389.48 60.98 389.47 60.98 378.81 60.98"/><polygon class="cls-14" points="362.73 74.39 357.73 74.39 355.23 78.72 357.73 83.05 362.73 83.05 365.23 78.72 362.73 74.39"/><polygon class="cls-14" points="366.63 76.31 363.84 76.31 362.45 78.72 363.84 81.13 366.63 81.13 368.02 78.72 366.63 76.31"/><polygon class="cls-14" points="374.08 78.72 372.69 81.13 371.29 78.72 372.69 76.31 374.08 78.72"/><polygon class="cls-14" points="375.47 76.31 372.69 76.31 371.29 78.72 372.69 81.13 375.47 81.13 376.87 78.72 375.47 76.31"/><polygon class="cls-14" points="383.31 78.72 381.92 81.13 380.52 78.72 381.92 76.31 383.31 78.72"/><polygon class="cls-14" points="384.7 76.31 381.91 76.31 380.52 78.72 381.91 81.13 384.7 81.13 386.09 78.72 384.7 76.31"/><polygon class="cls-9" points="513.63 273.22 513.28 300.23 487.08 299.9 487.52 265.2 506.04 265.44 506.04 265.44 513.63 273.22 513.63 273.22"/><polygon class="cls-15" points="505.94 273.13 506.04 265.44 506.04 265.44 513.63 273.22 513.63 273.22 505.94 273.13"/><polygon class="cls-14" points="494.24 282.64 490.63 282.59 488.79 285.69 490.55 288.83 494.15 288.88 496 285.78 494.24 282.64"/><polygon class="cls-14" points="497.02 284.06 495.02 284.03 493.99 285.75 494.97 287.51 496.98 287.53 498 285.81 497.02 284.06"/><polygon class="cls-14" points="502.37 285.86 501.35 287.59 500.36 285.84 501.39 284.11 502.37 285.86"/><polygon class="cls-14" points="503.4 284.14 501.39 284.11 500.36 285.84 501.35 287.59 503.35 287.61 504.38 285.89 503.4 284.14"/><polygon class="cls-14" points="509.02 285.95 508 287.67 507.01 285.92 508.04 284.2 509.02 285.95"/><polygon class="cls-14" points="510.05 284.22 508.04 284.19 507.01 285.92 507.99 287.67 510 287.7 511.03 285.97 510.05 284.22"/><polygon class="cls-9" points="168.48 85.56 168.32 98.5 155.76 98.34 155.97 81.71 164.85 81.83 164.84 81.83 168.48 85.56 168.48 85.56"/><polygon class="cls-15" points="164.8 85.51 164.84 81.83 164.85 81.83 168.48 85.56 168.48 85.56 164.8 85.51"/><polygon class="cls-14" points="159.19 90.07 157.46 90.05 156.58 91.53 157.42 93.04 159.15 93.06 160.03 91.57 159.19 90.07"/><polygon class="cls-14" points="160.53 90.75 159.56 90.73 159.07 91.56 159.54 92.4 160.5 92.41 161 91.59 160.53 90.75"/><polygon class="cls-14" points="163.09 91.61 162.6 92.44 162.13 91.6 162.62 90.77 163.09 91.61"/><polygon class="cls-14" points="163.58 90.79 162.62 90.77 162.13 91.6 162.6 92.44 163.56 92.45 164.05 91.63 163.58 90.79"/><polygon class="cls-14" points="166.27 91.65 165.78 92.48 165.31 91.64 165.8 90.81 166.27 91.65"/><polygon class="cls-14" points="166.76 90.83 165.8 90.81 165.31 91.64 165.78 92.48 166.74 92.49 167.24 91.67 166.76 90.83"/><polygon class="cls-9" points="553.69 131.23 553.52 144.18 540.96 144.02 541.18 127.39 550.05 127.5 550.05 127.51 553.68 131.24 553.69 131.23"/><polygon class="cls-15" points="550 131.19 550.05 127.51 550.05 127.5 553.69 131.23 553.68 131.24 550 131.19"/><polygon class="cls-14" points="544.39 135.75 542.67 135.72 541.78 137.21 542.63 138.72 544.36 138.74 545.24 137.25 544.39 135.75"/><polygon class="cls-14" points="545.73 136.43 544.77 136.41 544.28 137.24 544.75 138.08 545.71 138.09 546.2 137.26 545.73 136.43"/><polygon class="cls-14" points="548.29 137.29 547.8 138.12 547.33 137.28 547.82 136.45 548.29 137.29"/><polygon class="cls-14" points="548.78 136.46 547.82 136.45 547.33 137.28 547.8 138.12 548.76 138.13 549.25 137.3 548.78 136.46"/><polygon class="cls-14" points="551.48 137.33 550.99 138.16 550.52 137.32 551.01 136.49 551.48 137.33"/><polygon class="cls-14" points="551.97 136.5 551.01 136.49 550.52 137.32 550.99 138.16 551.95 138.17 552.44 137.34 551.97 136.5"/><polygon class="cls-9" points="105.14 251.93 104.97 264.87 92.41 264.71 92.63 248.09 101.5 248.2 101.5 248.2 105.13 251.93 105.14 251.93"/><polygon class="cls-15" points="101.45 251.89 101.5 248.2 101.5 248.2 105.14 251.93 105.13 251.93 101.45 251.89"/><polygon class="cls-14" points="95.84 256.44 94.12 256.42 93.23 257.9 94.08 259.41 95.81 259.43 96.69 257.95 95.84 256.44"/><polygon class="cls-14" points="97.18 257.12 96.22 257.11 95.73 257.94 96.2 258.78 97.16 258.79 97.65 257.96 97.18 257.12"/><polygon class="cls-14" points="99.74 257.99 99.25 258.82 98.78 257.98 99.27 257.15 99.74 257.99"/><polygon class="cls-14" points="100.23 257.16 99.27 257.15 98.78 257.98 99.25 258.81 100.21 258.83 100.7 258 100.23 257.16"/><polygon class="cls-14" points="102.93 258.03 102.44 258.86 101.97 258.02 102.46 257.19 102.93 258.03"/><polygon class="cls-14" points="103.42 257.2 102.46 257.19 101.97 258.02 102.44 258.86 103.4 258.87 103.89 258.04 103.42 257.2"/><polygon class="cls-3" points="351.43 301.65 335.38 290.31 330.07 283.1 396.2 249.86 401.3 263.52 395.23 268.08 391.22 280.66 351.43 301.65"/><polygon class="cls-16" points="401.3 263.52 396.2 249.86 417.15 245.79 414.76 254.14 401.3 263.52"/><polygon class="cls-3" points="417.15 245.79 396.2 249.86 418.86 227.15 419.84 236.84 417.15 245.79"/><polygon class="cls-16" points="396.2 249.86 359.47 227.6 417.72 216.17 418.86 227.15 396.2 249.86"/><polygon class="cls-3" points="396.2 249.86 359.47 227.6 298.38 252.8 396.2 249.86"/><polygon class="cls-16" points="396.2 249.86 330.06 283.1 325.57 277.21 315.49 278.84 307.78 282.02 298.38 252.8 396.2 249.86"/><polygon class="cls-3" points="298.38 252.8 258.77 272.63 271.3 283.86 291.97 288.73 307.78 282.02 298.38 252.8"/><polygon class="cls-3" points="359.47 227.6 386.95 204.94 411.85 199.57 417.72 216.17 359.47 227.6"/><polygon class="cls-16" points="359.47 227.6 386.95 204.94 311.36 208.96 298.38 252.8 359.47 227.6"/><polygon class="cls-16" points="298.38 252.8 232.33 233.02 239.19 250.71 240.24 250.86 258.77 272.63 298.38 252.8"/><polygon class="cls-3" points="311.36 208.96 232.33 233.02 298.38 252.8 311.36 208.96"/><polygon class="cls-16" points="386.95 204.94 382.48 177.65 403.35 184.81 411.85 199.57 386.95 204.94"/><polygon class="cls-3" points="382.48 177.65 311.36 208.96 386.95 204.94 382.48 177.65"/><polygon class="cls-3" points="403.35 184.81 382.48 177.65 388.59 165.57 394.01 171.39 403.35 184.81"/><polygon class="cls-16" points="311.36 208.96 382.48 177.65 388.59 165.57 373.48 151.56 353.8 141.22 311.36 208.96"/><polygon class="cls-3" points="353.8 141.22 311.36 208.96 249.03 207.82 353.8 141.22"/><polygon class="cls-16" points="224.58 167.26 249.03 207.82 205.69 218.26 204.71 203.65 214.64 175.81 224.58 167.26"/><polygon class="cls-16" points="216.18 243.16 232.33 233.02 239.19 250.71 220.01 247.98 216.18 243.16"/><polygon class="cls-16" points="311.36 208.96 232.33 233.02 249.03 207.82 311.36 208.96"/><polygon class="cls-3" points="249.03 207.82 232.33 233.02 216.18 243.16 205.64 228.87 205.69 218.26 249.03 207.82"/><polygon class="cls-16" points="353.8 141.22 328.16 134.87 298.38 134.87 249.03 207.82 353.8 141.22"/><polygon class="cls-16" points="249.03 207.82 298.38 134.87 266.33 139.03 239.19 152.95 249.03 207.82"/><polygon class="cls-3" points="239.19 152.95 224.58 167.26 249.03 207.82 239.19 152.95"/><polygon class="cls-3" points="266.33 139.03 249.03 207.82 298.38 134.87 266.33 139.03"/><path class="cls-17" d="M419.78,234.48l-1.43-15.1a2.87,2.87,0,0,0-1.23-5.61L412.32,200a2.35,2.35,0,0,0-1.11-4.42,2.41,2.41,0,0,0-.93.19l-4.88-7.73a2.58,2.58,0,0,0,.93-2,2.61,2.61,0,0,0-3.74-2.37L395.52,173a3.21,3.21,0,1,0-4.14-4.9l-15-14a2.28,2.28,0,0,0,.39-1.29,2.31,2.31,0,0,0-4.13-1.42l-17.38-9.51a1.8,1.8,0,0,0,.1-.57,1.91,1.91,0,0,0-3.65-.78L329,135.31a2,2,0,0,0,0-.25,2.8,2.8,0,0,0-5.58-.38h-21a2.81,2.81,0,0,0-5.59.36l-27.3,3.49a3.25,3.25,0,0,0-6.4.78,3.12,3.12,0,0,0,.22,1.14l-21.54,11.08a2.12,2.12,0,0,0-3.81,1.28,2.1,2.1,0,0,0,.32,1.12L215.8,174.31a3.18,3.18,0,1,0-3.46,5.26l-7.71,22.82-.3,0a2.09,2.09,0,0,0-.27,4.16l1.08,21a2.5,2.5,0,0,0,.5,5,2.47,2.47,0,0,0,1.24-.33L218.65,247a1.87,1.87,0,0,0,1.44,3.07,1.88,1.88,0,0,0,1.75-1.21l15.69,2.49v0a2.62,2.62,0,0,0,2.62,2.62,2.66,2.66,0,0,0,1.32-.36l9.76,12.3a2.56,2.56,0,0,0,1.87,4.32,2.52,2.52,0,0,0,1.58-.57l14.5,13.6a2.25,2.25,0,0,0-.39,1.28,2.31,2.31,0,0,0,4.46.86l16.3,3.55s0,.06,0,.09a2.19,2.19,0,0,0,4.38,0,2,2,0,0,0-.06-.49l19.66-8.33a2,2,0,0,0,3.65-1.05l6.82-1.08a1.47,1.47,0,0,0,1.95.9l8.31,11a1.29,1.29,0,0,0-.25.77,1.31,1.31,0,0,0,1.31,1.32,1.29,1.29,0,0,0,.81-.29l13.9,9.78a1.33,1.33,0,0,0-.08.45,1.38,1.38,0,0,0,2.75,0,1.27,1.27,0,0,0,0-.28l11.43-5.92a1.62,1.62,0,0,0,2.85-1.06,1.75,1.75,0,0,0-.05-.4l22.81-12a1.93,1.93,0,1,0,2.42-2.91l2.55-8.22a2.71,2.71,0,0,0,.41,0,2.62,2.62,0,0,0,2.62-2.63,2.66,2.66,0,0,0-.31-1.22l15.18-11.05a2.56,2.56,0,1,0,2.91-4.11l3.78-12.54a2.58,2.58,0,0,0,.39,0,2.62,2.62,0,0,0,.13-5.24Zm-8.57-34.17a2.85,2.85,0,0,0,.41,0l4.8,13.76a2.85,2.85,0,0,0-1.59,2.55,2,2,0,0,0,0,.24l-14,3-7.66,1.66a7.06,7.06,0,0,0-1.6-2.9l18.25-18.72A2.36,2.36,0,0,0,411.21,200.31ZM403,188.58a2.62,2.62,0,0,0,.75.12,2.49,2.49,0,0,0,1.06-.23l4.88,7.73a2.32,2.32,0,0,0-.33,3.15l-12.8,13.12-5.46,5.6a7.68,7.68,0,0,0-1.33-.92Zm-.69-.31-13.22,28.57a7,7,0,0,0-8.26,2.38l-5.46-3.54a2.64,2.64,0,0,0-.22-2.59l26.95-25Zm-82.43,56-17,2.92a3.29,3.29,0,0,0-2.12-2.2l5.94-27.93a7.5,7.5,0,0,0,1.27.11,8,8,0,0,0,2.69-.48l10.55,25.15a2.72,2.72,0,0,0-1.34,2.34S319.84,244.28,319.84,244.31Zm-39.23-13.26L302,214.45a7.83,7.83,0,0,0,4,2.49L300,244.88c-.11,0-.21,0-.32,0a3.31,3.31,0,0,0-2.51,1.18l-16.42-11a3.82,3.82,0,0,0-.13-4Zm-22.2-32a4.09,4.09,0,0,0,1,.14,3.87,3.87,0,0,0,3.6-2.44l37.26,10.75a7.82,7.82,0,0,0-.22,1.82,7,7,0,0,0,.09,1.13l-45.29,8.78a5.12,5.12,0,0,0-2.79-3.3Zm-7.05,16.61a5,5,0,0,0-1.45-.21,5.14,5.14,0,0,0-4.7,3.07l-38.82-13.74a1.53,1.53,0,0,0,0-.3l49.26-8.16a3.85,3.85,0,0,0,2,2.46Zm80.85-31.79-19.07,19.56a7.79,7.79,0,0,0-2.36-1.44l.52-1.55,9.12-27.18a2.84,2.84,0,0,0,.51,0,2.74,2.74,0,0,0,2.21-1.13l7.94,4.27a6.69,6.69,0,0,0,1.13,7.42Zm11.69-5.22,46.46-7.23a3.26,3.26,0,0,0,.36.83l-27.13,21.58a2.74,2.74,0,0,0-3.94.16L343,182.77a6.72,6.72,0,0,0,1-3.45C343.94,179.1,343.92,178.88,343.9,178.66Zm18.87,19.7,8.52,14.2a2.61,2.61,0,0,0-1,1.9l-15.09,1.45a3.12,3.12,0,0,0-1.42-2l7.08-15.48a2.67,2.67,0,0,0,.79.13A2.74,2.74,0,0,0,362.77,198.36Zm-3.54-3.74a2.71,2.71,0,0,0,1,3.52l-7.09,15.48a2.94,2.94,0,0,0-.94-.16,3.11,3.11,0,0,0-.81.12l-11.33-28.15a6.9,6.9,0,0,0,2.51-2Zm-8.54,19.24a3.09,3.09,0,0,0-1.49,1.85l-33.45-5.48a8.72,8.72,0,0,0,.05-.9,7.83,7.83,0,0,0-2.12-5.36l19.07-19.56a6.66,6.66,0,0,0,6.6,1.3Zm-40.62-12.1a7.75,7.75,0,0,0-5.16.29l-13-27.58a4.5,4.5,0,0,0,2.23-3.52h24.07a2.69,2.69,0,0,0,1.49,2.07Zm-5.84.61a8,8,0,0,0-3.76,4.42l-28.34-8.18L263.22,196a4.17,4.17,0,0,0,.07-.71,3.85,3.85,0,0,0-.66-2.15l23.81-19.48a4.5,4.5,0,0,0,3.23,1.37,4.33,4.33,0,0,0,1.57-.29ZM255,220.59a6.08,6.08,0,0,0,0-.61l19.58-3.8,25.7-5a7.85,7.85,0,0,0,1.21,2.66l-21.34,16.6a3.9,3.9,0,0,0-6.25.72l-19.19-8.8A5.31,5.31,0,0,0,255,220.59Zm64,14.29-7.73-18.44a7.88,7.88,0,0,0,4.32-5.47l33.45,5.48a.69.69,0,0,0,0,.13,3.1,3.1,0,0,0,.61,1.84l-25.41,23.69a2.66,2.66,0,0,0-1.7-.62,2.63,2.63,0,0,0-.7.1Zm6.24,9.34a2.74,2.74,0,0,0-.5-1.57L350.19,219a3.33,3.33,0,0,0,.95.55l-12.07,53-.26,0a2.89,2.89,0,0,0-1,.18l-13.7-26.23A2.69,2.69,0,0,0,325.28,244.22Zm26.59-24.54c.11,0,.21,0,.32,0a2.58,2.58,0,0,0,.4,0l11.2,43.56a4.69,4.69,0,0,0-3.16,4.43,4.76,4.76,0,0,0,.09.94l-19.28,5.6a2.9,2.9,0,0,0-1.63-1.54Zm-10.18,55.67a3.15,3.15,0,0,0-.05-.43l19.3-5.6a4.57,4.57,0,0,0,1.55,2.07L360.84,274l-6.55,10.24a1.73,1.73,0,0,0-1.78.35l-11.16-7.89A2.82,2.82,0,0,0,341.69,275.35Zm12.2,12.24a1.74,1.74,0,0,0,1.44-1.15L366,287.8a.51.51,0,0,0,0,.13l-12,6.42a1.71,1.71,0,0,0-.77-.52Zm1.53-1.89a1.7,1.7,0,0,0-.49-1.08l8.19-12.82a4.63,4.63,0,0,0,2.2.55h.12l.55,5.15.93,8.77a1.41,1.41,0,0,0-.8.79ZM365.61,263l-.29,0a4.26,4.26,0,0,0-.8.08l-11.2-43.56a3.13,3.13,0,0,0,2-2.83l15.09-1.45a2.62,2.62,0,0,0,1.81,1.88ZM373,217.21a2.6,2.6,0,0,0,2-.9l5.47,3.54a7,7,0,0,0,2.72,9.64L367,263.29a4.75,4.75,0,0,0-.64-.2Zm20.5-43.42a3.24,3.24,0,0,0,1.45-.36L402,184.12a2.65,2.65,0,0,0-.88,2,2.53,2.53,0,0,0,.47,1.48l-27,25c-.07-.05-.13-.11-.21-.16l18.07-38.78A3.05,3.05,0,0,0,393.45,173.79Zm-1.68-.49L373.7,212.08a2.57,2.57,0,0,0-1.77.08L363.41,198a2.71,2.71,0,0,0,1-2.13,2.78,2.78,0,0,0-.39-1.4l27.13-21.58A3.18,3.18,0,0,0,391.77,173.3Zm-19-18.86a2.28,2.28,0,0,0,3.05.2l15,14a3.15,3.15,0,0,0-.64,1.9s0,.08,0,.12l-46.45,7.23a6.76,6.76,0,0,0-.9-2.2L367,158.54Zm-19.36-11.22a1.89,1.89,0,0,0,1.45-.69l17.38,9.52a2.43,2.43,0,0,0-.14.76,2.33,2.33,0,0,0,.25,1l-18.79,13.36-11.13,7.92a6.76,6.76,0,0,0-2.28-1.83l12.87-30.1A2.58,2.58,0,0,0,353.44,143.22Zm-1.13-.38.05,0L339.49,173a6.73,6.73,0,0,0-8.06,2.82l-7.93-4.27a2.77,2.77,0,0,0,.18-1,2.72,2.72,0,0,0-.47-1.54Zm-26.13-5a2.81,2.81,0,0,0,2.63-1.82l22.73,5.21s0,0,0,.05a2,2,0,0,0,.27,1l-29.1,26.2a2.7,2.7,0,0,0-1-.54l4.44-30.07Zm-1.73-.61a2.77,2.77,0,0,0,.95.49L321,167.82h0a2.74,2.74,0,0,0-2.71,2.38H294.15a4.56,4.56,0,0,0-1-2.49Zm-24.78.61a2.81,2.81,0,0,0,2.78-2.44h21a2.67,2.67,0,0,0,.52,1.3l-31.31,30.45a4.54,4.54,0,0,0-1.37-.82l8-28.53A2.58,2.58,0,0,0,299.67,137.87Zm-30,1.44v0L297,135.78a2.8,2.8,0,0,0,1.59,1.86l-8,28.51a4.71,4.71,0,0,0-.85-.08,4.46,4.46,0,0,0-2.37.68l-6.92-9.29-11.74-15.79A3.22,3.22,0,0,0,269.66,139.31Zm-6,1.81a3.26,3.26,0,0,0,2.7,1.44,3.2,3.2,0,0,0,1.62-.45l17.14,23,1.52,2a4.45,4.45,0,0,0-1.11,1.5l-43.34-15.53a2.2,2.2,0,0,0,0-.36,2.05,2.05,0,0,0-.1-.61ZM242,153.87l43.33,15.54a4.91,4.91,0,0,0-.15,1.16,4.48,4.48,0,0,0,.79,2.55l-23.8,19.48a3.79,3.79,0,0,0-4-.93l-16.81-37.11A2.09,2.09,0,0,0,242,153.87Zm-3.13.62a2.08,2.08,0,0,0,1.29.45,2.18,2.18,0,0,0,.52-.07L257.48,192a3.87,3.87,0,0,0-1.48,1.55l-23.58-9.61-15.65-6.38a3.35,3.35,0,0,0,.13-.84,3.15,3.15,0,0,0-.59-1.84Zm-25.81,25.33a3.51,3.51,0,0,0,.66.07,3.19,3.19,0,0,0,2.78-1.66l15.28,6.23,23.94,9.77a4,4,0,0,0-.18,1.1,2.3,2.3,0,0,0,0,.26l-49.27,8.16a2.09,2.09,0,0,0-.95-1.12Zm-7.16,47.67-1.08-21a2.05,2.05,0,0,0,1.33-1L245,219.24a5,5,0,0,0-.19,1.35,5.34,5.34,0,0,0,.05.69L208,229.09A2.48,2.48,0,0,0,205.89,227.49Zm15.29,19.15a1.9,1.9,0,0,0-1.09-.36,1.87,1.87,0,0,0-.85.21l-11.77-14.83a2.47,2.47,0,0,0,.67-1.7c0-.05,0-.09,0-.14L245,222a5.05,5.05,0,0,0,.91,1.77Zm19,2.08a2.61,2.61,0,0,0-2.49,1.85L222,248.07a1.78,1.78,0,0,0-.27-.88l24.73-22.86a4.94,4.94,0,0,0,1.6,1l-7.43,23.42A3,3,0,0,0,240.15,248.72Zm1.14.27,7.43-23.42a5.13,5.13,0,0,0,5.68-2.51l19.19,8.8a3.74,3.74,0,0,0-.24,1.29,3.82,3.82,0,0,0,.27,1.39l-31.3,15.33A2.59,2.59,0,0,0,241.29,249Zm13,16.39a2.59,2.59,0,0,0-1.14-.28,2.53,2.53,0,0,0-1.28.35l-9.76-12.31a2.62,2.62,0,0,0,.72-1.79,2.7,2.7,0,0,0-.14-.81L274,235.21a3.67,3.67,0,0,0,.79.92Zm21.12-28.82a3.82,3.82,0,0,0,1.93.53,3.9,3.9,0,0,0,3-1.45l16.42,11a3.39,3.39,0,0,0-.38,1.52,3.16,3.16,0,0,0,.15.92l-41.23,17.26a2.45,2.45,0,0,0-.42-.53Zm-3.15,46a2.29,2.29,0,0,0-1.11-.29,2.34,2.34,0,0,0-1.4.48l-14.5-13.59a2.51,2.51,0,0,0,.46-1.46,2.66,2.66,0,0,0-.09-.63l41.22-17.26a3.43,3.43,0,0,0,.56.74Zm19.52,4.34a2.18,2.18,0,0,0-2,1.36l-16.31-3.56s0-.08,0-.12a2.26,2.26,0,0,0-.61-1.55l25.14-32a3.28,3.28,0,0,0,.74.33l-3.52,18.12-3.39,17.44Zm21.45-7.76a2,2,0,0,0,0,.43l-19.65,8.33a2.12,2.12,0,0,0-1.06-.85l.38-1.93,6.53-33.64.25,0a3.34,3.34,0,0,0,1.14-.21L314,277.52A2,2,0,0,0,313.18,279.1Zm2-2a1.91,1.91,0,0,0-.54.09l-13.16-26.26a3.3,3.3,0,0,0,1.51-2.77c0-.07,0-.13,0-.19L320,245a2.7,2.7,0,0,0,1.66,1.73l-6.41,30.34Zm10.2-.93a1.46,1.46,0,0,0-1.43,1.16l-6.9,1.1a2,2,0,0,0-1.1-1.17l6.42-30.33h.19a2.76,2.76,0,0,0,.91-.16L337.16,273a2.87,2.87,0,0,0-1.23,2.35s0,0,0,.08l-9.29,1.47A1.45,1.45,0,0,0,325.38,276.17Zm9.84,13.26a1.17,1.17,0,0,0-.37.08l-8.31-11a1.49,1.49,0,0,0,.31-.91h0l9.22-1.46a2.83,2.83,0,0,0,1.74,1.87Zm.73.16,2.6-11.39a2.06,2.06,0,0,0,.26,0,2.86,2.86,0,0,0,2.11-.93l11.16,7.88a1.72,1.72,0,0,0-.14.68s0,.05,0,.07l-15.53,4.12A1.22,1.22,0,0,0,336,289.59Zm16.19-2.93a1.75,1.75,0,0,0,1,.85l-.65,6.24a1.74,1.74,0,0,0-1.34.92l-2.2-.6-12.2-3.33Zm-.92,14a1.41,1.41,0,0,0-.77.3l-13.17-9.26L351,295.4s0,.05,0,.08a1.76,1.76,0,0,0,1,1.6Zm1.09.43a1.22,1.22,0,0,0-.36-.27l.51-2.4.24-1.15a1.73,1.73,0,0,0,1.71-1.47l9.17-.55Zm13-7.94a1.62,1.62,0,0,0-1.6,1.34l-9.34.56,12-6.42a1.68,1.68,0,0,0,.29.24l-1.28,4.29Zm1.22.56a1.65,1.65,0,0,0-.41-.34l1.28-4.29h0a1.43,1.43,0,0,0,1.44-1.43h0L388,282.37Zm22.74-12.43-20.6,5.64a1.46,1.46,0,0,0-1-.69l-1.48-13.92a4.7,4.7,0,0,0,3.1-2.12l19,9.86,1.07.56a1.9,1.9,0,0,0-.09.53A.59.59,0,0,0,389.28,281.24Zm2.12-2.05-.2,0a2,2,0,0,0-1.51.73l-20.05-10.42a4.63,4.63,0,0,0,.34-1.29l22.5.7A2.62,2.62,0,0,0,394,271Zm1.1-11.05-22.5-.71a4.69,4.69,0,0,0-2.33-3.82l16.11-33.8a7,7,0,0,0,2.67.53,7.3,7.3,0,0,0,.94-.07L391.15,250l3.07,16.15A2.62,2.62,0,0,0,392.5,268.14Zm19.64-12.42-15.18,11a2.63,2.63,0,0,0-1.88-.79H395l-6.83-35.86a7,7,0,0,0,2.7-1.34l11.48,12.81,10.12,11.3a2.48,2.48,0,0,0-.29,2.82Zm2.63-3.71a2.46,2.46,0,0,0-.37,0,2.5,2.5,0,0,0-1.41.43l-9.54-10.64-12.06-13.47a7,7,0,0,0,1.37-1.93l24.35,10.09a2.67,2.67,0,0,0-.09.64,2.62,2.62,0,0,0,1.52,2.37Zm2.63-16.26-24.35-10.09a6.9,6.9,0,0,0,.4-2.32,8,8,0,0,0-.09-1.11l.72-.16L415,217.55a2.86,2.86,0,0,0,2.59,1.9l1.43,15.1A2.62,2.62,0,0,0,417.4,235.75Z"/><circle class="cls-18" cx="307.78" cy="208.96" r="5.11"/><circle class="cls-18" cx="337.16" cy="179.29" r="5.11"/><circle class="cls-18" cx="386.52" cy="223.39" r="5.11"/><circle class="cls-18" cx="365.33" cy="267.85" r="3.06"/><circle class="cls-18" cx="249.97" cy="220.42" r="3.06"/><circle class="cls-18" cx="277.3" cy="233.2" r="2.48"/><circle class="cls-18" cx="352.17" cy="216.63" r="2.04"/><circle class="cls-18" cx="259.44" cy="195.47" r="2.48"/><circle class="cls-18" cx="289.7" cy="170.5" r="2.48"/><circle class="cls-18" cx="320.94" cy="170.55" r="1.52"/><circle class="cls-18" cx="361.73" cy="195.87" r="1.52"/><circle class="cls-18" cx="372.98" cy="214.65" r="1.52"/><circle class="cls-18" cx="322.57" cy="244.3" r="1.52"/><circle class="cls-18" cx="299.67" cy="248.29" r="1.52"/><polygon class="cls-19" points="391.43 281.6 395.02 309.73 377.56 330.41 367.67 293.08 391.43 281.6"/><path class="cls-19" d="M377.56,330.41c-2,0-13.79-1-13.79-1l-12.34-27.75,16.24-8.57Z"/><polygon class="cls-19" points="359.09 315.46 367.67 293.08 377.56 330.41 359.09 315.46"/><polyline class="cls-19" points="395.02 309.73 383.1 307.61 367.67 293.08 390.52 280.99 381.77 324.6"/><circle class="cls-17" cx="358.44" cy="315.81" r="2.24"/><circle class="cls-17" cx="377.77" cy="330.41" r="2.24"/><circle class="cls-17" cx="384.26" cy="307.95" r="2.24"/><circle class="cls-17" cx="395.02" cy="309.83" r="2.24"/><path class="cls-19" d="M238,252.82s-12.15,12.28-7.46,20.6S262.06,293.16,245.9,306s-43.51,3.24-35.21,18.59,18.64,30.36-10.36,23.06S179.84,307,152.46,324.6,132,356.38,104.59,347.05s-33.06-21.3-46.85-15.22"/><path class="cls-20" d="M245,258s-2.74-11.91-23.29,4.58-19.42,29.61-5.37,35.53,53.25,5.1,46.32,18.9,32.93,35.7,58.54,25.76,3.9-19.41,35.75-6.76,20.14,34.91,60.23,4.93c20.21-15.12,56.4-22.11,83.37-6.49s42,16.63,55,9.94"/><path class="cls-21" d="M325.41,277.75s12.51,11.29,3.18,20.38-16,4.48-30.21,13.62-4,42.26-33.89,32.93-28.13-31.51-45-24.34-28.53,21-46.92,17.71S145.67,324.27,131.11,327s-39,22.07-51.06,19.35"/><circle class="cls-11" cx="216.31" cy="298.13" r="2.92"/><circle class="cls-11" cx="471.92" cy="326.6" r="2.92"/><circle class="cls-6" cx="322.57" cy="302.8" r="2.92"/><circle class="cls-6" cx="134.14" cy="326.71" r="2.92"/><circle class="cls-17" cx="175.11" cy="325.89" r="2.92"/><circle class="cls-17" cx="250.23" cy="293.7" r="2.92"/><polygon class="cls-9" points="239.37 104.71 239.04 130.52 214 130.2 214.43 97.05 232.12 97.28 232.12 97.28 239.37 104.72 239.37 104.71"/><polygon class="cls-15" points="232.02 104.63 232.12 97.28 232.12 97.28 239.37 104.71 239.37 104.72 232.02 104.63"/><polygon class="cls-14" points="220.84 113.71 217.4 113.67 215.63 116.63 217.32 119.63 220.76 119.68 222.52 116.72 220.84 113.71"/><polygon class="cls-14" points="223.5 115.07 221.59 115.04 220.6 116.69 221.54 118.36 223.46 118.39 224.44 116.74 223.5 115.07"/><polygon class="cls-14" points="228.61 116.79 227.63 118.44 226.69 116.77 227.68 115.12 228.61 116.79"/><polygon class="cls-14" points="229.59 115.14 227.68 115.12 226.69 116.77 227.63 118.44 229.55 118.47 230.53 116.82 229.59 115.14"/><polygon class="cls-14" points="234.97 116.88 233.99 118.53 233.05 116.85 234.03 115.2 234.97 116.88"/><polygon class="cls-14" points="235.94 115.22 234.03 115.2 233.05 116.85 233.98 118.52 235.9 118.55 236.88 116.9 235.94 115.22"/><path class="cls-6" d="M83.66,157.23c-.32-.92-.65-1.82-1-2.73a.54.54,0,0,0-.38-.37c-.76-.29-1.51-.61-2.25-.94a.49.49,0,0,0-.47,0c-.79.39-1.6.76-2.4,1.15a.32.32,0,0,1-.44-.07c-.63-.65-1.27-1.28-1.91-1.91a.31.31,0,0,1-.07-.44c.39-.8.76-1.61,1.15-2.4a.51.51,0,0,0,0-.48c-.34-.75-.66-1.5-1-2.27a.49.49,0,0,0-.33-.34l-2.54-.9-.22-.09c0-1,0-2,0-3.06,0-.09.13-.21.23-.24.84-.31,1.69-.6,2.53-.92a.67.67,0,0,0,.3-.32c.33-.76.64-1.53,1-2.29a.45.45,0,0,0,0-.45c-.39-.8-.76-1.6-1.15-2.4a.33.33,0,0,1,.07-.47c.64-.62,1.27-1.25,1.88-1.89a.36.36,0,0,1,.48-.07c.79.39,1.6.76,2.4,1.15a.46.46,0,0,0,.44,0c.76-.34,1.54-.64,2.3-1a.59.59,0,0,0,.32-.3c.31-.82.61-1.66.89-2.5.07-.2.15-.27.36-.27h3c.33.91.66,1.82,1,2.72a.54.54,0,0,0,.39.37c.75.29,1.48.6,2.21.93a.55.55,0,0,0,.54,0c.78-.38,1.58-.75,2.37-1.14a.31.31,0,0,1,.44.08c.63.64,1.26,1.28,1.91,1.9a.33.33,0,0,1,.06.45c-.39.81-.78,1.62-1.15,2.43a.58.58,0,0,0,0,.41c.31.77.65,1.53,1,2.3a.49.49,0,0,0,.33.35c.82.28,1.65.59,2.48.87a.34.34,0,0,1,.28.38c0,.9,0,1.8,0,2.7a.31.31,0,0,1-.24.35c-.84.28-1.67.59-2.51.88a.52.52,0,0,0-.35.37c-.29.75-.6,1.5-.94,2.24a.52.52,0,0,0,0,.5c.39.79.75,1.59,1.14,2.37a.35.35,0,0,1-.08.48c-.64.61-1.26,1.24-1.88,1.88a.33.33,0,0,1-.47.07c-.8-.39-1.61-.76-2.4-1.15a.45.45,0,0,0-.45,0l-2.29,1a.59.59,0,0,0-.32.3c-.32.83-.61,1.66-.9,2.5a.31.31,0,0,1-.36.27Zm1.61-20.87a7.48,7.48,0,1,0,7.48,7.47A7.47,7.47,0,0,0,85.27,136.36Z"/><path class="cls-3" d="M109,164.84c-.24-.68-.48-1.35-.71-2a.41.41,0,0,0-.29-.27c-.56-.22-1.11-.45-1.66-.7a.36.36,0,0,0-.35,0l-1.78.85a.23.23,0,0,1-.33,0c-.47-.48-.94-1-1.42-1.41a.25.25,0,0,1,0-.33c.29-.59.57-1.19.86-1.78a.36.36,0,0,0,0-.35c-.25-.56-.48-1.12-.7-1.69a.36.36,0,0,0-.24-.25l-1.89-.67-.16-.07c0-.76,0-1.51,0-2.27,0-.06.1-.15.17-.17l1.87-.68a.47.47,0,0,0,.22-.24c.25-.57.48-1.14.73-1.7a.35.35,0,0,0,0-.33c-.29-.59-.56-1.19-.85-1.78a.25.25,0,0,1,0-.35c.48-.46.94-.92,1.4-1.4a.25.25,0,0,1,.35-.05L106,148a.35.35,0,0,0,.33,0l1.7-.73a.47.47,0,0,0,.24-.22c.23-.61.45-1.23.66-1.85a.24.24,0,0,1,.27-.2c.73,0,1.46,0,2.2,0,.24.68.49,1.35.72,2a.41.41,0,0,0,.29.28c.55.21,1.1.44,1.64.68a.39.39,0,0,0,.39,0l1.76-.85a.24.24,0,0,1,.33.06c.46.47.93.95,1.41,1.41a.24.24,0,0,1,0,.33c-.29.6-.58,1.2-.85,1.8a.44.44,0,0,0,0,.3c.23.58.48,1.14.71,1.71a.37.37,0,0,0,.24.26l1.84.65a.25.25,0,0,1,.21.28c0,.67,0,1.33,0,2a.23.23,0,0,1-.18.26l-1.86.65a.39.39,0,0,0-.26.28c-.22.56-.45,1.11-.69,1.66a.38.38,0,0,0,0,.37c.29.58.56,1.17.85,1.76a.26.26,0,0,1-.06.35c-.47.45-.94.92-1.4,1.39-.11.13-.2.13-.35.06l-1.77-.86a.33.33,0,0,0-.33,0l-1.71.72a.45.45,0,0,0-.23.22c-.24.62-.46,1.24-.67,1.86,0,.14-.1.2-.26.2Zm1.2-15.47a5.54,5.54,0,1,0,5.54,5.54A5.53,5.53,0,0,0,110.2,149.37Z"/><path class="cls-11" d="M92.5,169.89c-.15-.43-.31-.86-.45-1.29a.25.25,0,0,0-.19-.17L90.8,168a.22.22,0,0,0-.22,0l-1.13.55a.15.15,0,0,1-.21,0l-.91-.9a.16.16,0,0,1,0-.21c.19-.37.36-.75.55-1.13a.22.22,0,0,0,0-.22c-.15-.36-.3-.72-.44-1.08a.25.25,0,0,0-.16-.16l-1.2-.43-.1,0v-1.44s.06-.1.11-.12l1.2-.43a.34.34,0,0,0,.14-.15c.15-.36.3-.73.46-1.09a.22.22,0,0,0,0-.21c-.19-.37-.36-.75-.54-1.13a.15.15,0,0,1,0-.22c.3-.29.6-.59.89-.89a.16.16,0,0,1,.22,0l1.14.54a.2.2,0,0,0,.21,0l1.08-.46a.26.26,0,0,0,.15-.14c.15-.39.29-.78.43-1.18,0-.09.06-.13.17-.13.46,0,.93,0,1.4,0,.15.44.31.86.46,1.29a.25.25,0,0,0,.18.18c.35.13.7.28,1,.43a.25.25,0,0,0,.25,0c.37-.19.75-.36,1.12-.54a.16.16,0,0,1,.21,0q.44.47.9.9a.16.16,0,0,1,0,.21c-.19.38-.37.77-.54,1.15a.25.25,0,0,0,0,.19c.15.37.31.73.45,1.09a.24.24,0,0,0,.15.17l1.17.41c.1,0,.14.07.14.18,0,.42,0,.85,0,1.27a.15.15,0,0,1-.12.17l-1.18.42c-.1,0-.13.08-.17.17-.13.36-.28.71-.44,1.06a.25.25,0,0,0,0,.24c.18.37.35.75.54,1.12a.16.16,0,0,1,0,.22c-.3.29-.6.59-.89.89a.15.15,0,0,1-.22,0L96,168a.22.22,0,0,0-.21,0l-1.09.46a.34.34,0,0,0-.15.14c-.15.4-.29.79-.42,1.19,0,.09-.07.12-.17.12Zm.76-9.86a3.53,3.53,0,1,0,3.54,3.53A3.53,3.53,0,0,0,93.26,160Z"/></svg>