<svg id="Layer_1" data-name="Layer 1" xmlns="http://www.w3.org/2000/svg" xmlns:xlink="http://www.w3.org/1999/xlink" viewBox="0 0 500 500"><defs><style>.cls-1,.cls-23,.cls-4{fill:#0562e8;}.cls-1{opacity:0.06;}.cls-2,.cls-22,.cls-27,.cls-28,.cls-29,.cls-3{fill:none;stroke-miterlimit:10;}.cls-2,.cls-22,.cls-27,.cls-28{stroke:#F99316;}.cls-2,.cls-3{stroke-width:3px;}.cls-2,.cls-23,.cls-26,.cls-3,.cls-31{opacity:0.5;}.cls-2,.cls-3,.cls-31{isolation:isolate;}.cls-29,.cls-3{stroke:#3dba85;}.cls-5{fill:#f1f2f2;}.cls-6{fill:#f13624;}.cls-7{fill:#f44e4a;}.cls-8{fill:#c12521;}.cls-9{fill:#dd2f26;}.cls-10{fill:#fff;}.cls-11{fill:#042946;}.cls-12{fill:#042033;}.cls-13{fill:#144866;}.cls-14{fill:#1e6187;}.cls-15{fill:#073351;}.cls-16{fill:#e6e7e8;}.cls-17{fill:#bcbec0;}.cls-18{fill:#3dba85;}.cls-19{opacity:0.15;}.cls-20{opacity:0.35;}.cls-21,.cls-32{fill:#F99316;}.cls-22{stroke-dasharray:5 5;}.cls-24{fill:#bbbdbf;}.cls-25,.cls-32{opacity:0.15;}.cls-28{stroke-dasharray:4.74 4.74;}.cls-30{fill:#d1d3d4;}.cls-31{fill:url(#linear-gradient);}</style><linearGradient id="linear-gradient" x1="144.88" y1="-243.54" x2="89.81" y2="-299.82" gradientTransform="matrix(0, -1, -1, 0, -180.55, 391.6)" gradientUnits="userSpaceOnUse"><stop offset="0" stop-color="#32b44a" stop-opacity="0"/><stop offset="1" stop-color="#32b44a"/></linearGradient></defs><title>Healthcare Services Banner</title><path class="cls-1" d="M341.43,59c-99.24,26.2-94.81,20-154.68,10.57S61.14,43.73,62.32,131.77s76.3,142.92,43.43,200S-28.07,417,104.58,439.34,251,384.92,321,391s145.14,97.64,121.66-23.27S402.75,257.41,405.1,211.61s81-20,66.91-88.05S430.36,35.51,341.43,59Z"/><rect class="cls-2" x="61.78" y="206.49" width="155.3" height="155.3" rx="15.83" transform="translate(-160.08 181.81) rotate(-45)"/><rect class="cls-3" x="323.64" y="295.22" width="122.08" height="122.08" rx="12.45" transform="translate(-139.24 376.36) rotate(-45)"/><rect class="cls-4" x="106.29" y="250.22" width="230.82" height="175.12" rx="11.01"/><rect class="cls-5" x="110.2" y="247.73" width="230.82" height="175.12" rx="11.01"/><polygon class="cls-6" points="325.33 439.03 424.8 382.71 424.8 306.06 325.33 362.39 325.33 439.03"/><polygon class="cls-7" points="424.8 306.06 396.32 291.55 300.95 348.02 325.33 362.39 424.8 306.06"/><polygon class="cls-8" points="407.58 298.33 406.96 297.85 311.59 354.31 312.35 354.65 407.58 298.33"/><polygon class="cls-9" points="325.33 362.39 325.33 439.03 301.33 427.47 300.95 348.02 325.33 362.39"/><polygon class="cls-8" points="312.35 432.78 311.59 432.42 311.59 354.22 312.35 354.67 312.35 432.78"/><path class="cls-10" d="M392.43,345.19c-9-6.42-25,.63-35.8,15.74s-12.18,32.57-3.17,39,25-.63,35.8-15.74S401.44,351.61,392.43,345.19Zm-4.66,37.91c-9.78,13.73-24.34,20.13-32.52,14.31s-6.9-21.68,2.88-35.41,24.34-20.13,32.52-14.3S397.54,369.38,387.77,383.1Z"/><polygon class="cls-5" points="387.88 359.9 387.63 365.55 375.74 373.44 375.24 384.97 369.42 388.84 369.91 377.3 358.02 385.19 358.26 379.55 370.15 371.66 370.65 360.12 376.48 356.26 375.98 367.79 387.88 359.9"/><polygon class="cls-11" points="349.62 334.78 349.62 318.31 377.11 302.45 377.11 318.85 380.98 316.64 380.98 295.3 345.49 315.91 345.49 337.11 349.62 334.78"/><polygon class="cls-12" points="345.49 315.91 340.53 315.91 376.02 295.3 380.98 295.3 345.49 315.91"/><rect class="cls-13" x="340.53" y="315.91" width="4.96" height="20.98"/><polygon class="cls-13" points="372.15 318.87 377.13 318.86 377.13 302.46 372.15 305.32 372.15 318.87"/><polygon class="cls-14" points="330.61 348.91 335.74 345.72 323.93 339.04 319.14 341.75 330.61 348.91"/><polygon class="cls-15" points="335.74 345.72 335.74 348.26 330.53 351.8 330.61 348.91 335.74 345.72"/><polygon class="cls-13" points="330.61 348.91 330.53 351.8 319.14 344.85 319.14 341.75 330.61 348.91"/><polygon class="cls-14" points="398.16 309.56 403.29 306.36 391.48 299.69 386.69 302.4 398.16 309.56"/><polygon class="cls-15" points="403.29 306.36 403.29 308.9 398.08 312.44 398.16 309.56 403.29 306.36"/><polygon class="cls-13" points="398.16 309.56 398.08 312.44 386.69 305.49 386.69 302.4 398.16 309.56"/><rect class="cls-16" x="125.5" y="260.62" width="85.25" height="66.35" rx="5.52"/><path class="cls-17" d="M167.38,318.09c-30.32-14-35.18-48.6-17.51-48.6,17.36,0,17.51,8.67,17.51,9,0-.28.15-9,17.54-9C202.58,269.49,197.72,304.1,167.38,318.09Z"/><path class="cls-4" d="M132.93,293.79l6.48-.18-.16.11,3.58-8,3.6-8,.51-1.13.47,1.16,6.47,15.82c1.07,2.64,2.17,5.27,3.22,7.92l3.16,7.93-1.7.16,3-15.91.15-.78h.79l7.37,0-.93.64,6.09-15.88,1-2.61.77,2.68,4.57,15.92c1.54,5.3,3,10.64,4.46,15.95l-1.31,0,2.72-10.49c.9-3.5,1.86-7,2.78-10.48l.26-1,.34.92,2,5.17-.18-.12,7.22.19-7.22.2h-.12l-.06-.12-2.17-5.09.6,0c-.79,3.53-1.55,7.06-2.37,10.58l-2.44,10.56-.56,2.46-.74-2.43c-1.6-5.28-3.26-10.55-4.82-15.85L175,278.18l1.76.07-6,15.92-.24.65h-.68l-7.37,0,.95-.78-3.16,15.89-.6,3-1.11-2.84-3.09-8c-1-2.65-2-5.32-3-8l-6.05-16,1,0L143.49,286l-3.92,7.86,0,.1h-.11Z"/><rect class="cls-4" x="217.82" y="263.49" width="22.97" height="11.26"/><rect class="cls-17" x="217.82" y="280.28" width="60.74" height="11.26"/><rect class="cls-4" x="217.82" y="297.08" width="36.22" height="11.26"/><rect class="cls-17" x="217.82" y="313.87" width="90.33" height="11.26"/><path class="cls-18" d="M131.53,344.62c5.08-.13,10.16-.22,15.25-.3l-.2.07,7.8-6.8.34-.29.31.34,11.74,12.46-1.06.11,3.4-6,.19-.34.41,0,8.28-.45-.59.3,3-3.61.69-.84.65.88,6.15,8.41-1.6.41.64-5.09.1-.79h.8l7.53,0-.66.28,6-6.07.77-.78.68.88c3,3.85,5.94,7.67,8.87,11.55l-1.65.11,3.33-5.85.28-.5h.58l8.17.18-.41.08,11.22-5.19.78-.36.39.76,5.61,11.07-1.57.16,1.74-6.06.17-.59h.6l8.47.09-.43.15,8-6.07.63-.48.29.72c1.77,4.26,3.57,8.5,5.31,12.77l-.7-.14,9.57-9.06.14-.13.14.12,3.05,2.73-.08,0,5.55.13-5.55.12h-.05l0,0-3.15-2.6h.28l-9.26,9.38-.44.44-.26-.58c-1.9-4.2-3.74-8.42-5.62-12.64l.93.24-7.84,6.24-.19.14h-.25l-8.47.09.77-.58-1.65,6.09L238.8,352l-1-2-5.69-11,1.18.4-11.19,5.27-.19.09h-.22l-8.18-.12.86-.49L211.08,350l-.73,1.3-.91-1.19c-3-3.84-5.89-7.73-8.83-11.59l1.44.1-6,6-.28.28h-.38l-7.53,0,.9-.79-.68,5.09-.3,2.22-1.3-1.81-6.09-8.46,1.34,0-3,3.57-.24.28h-.36l-8.28.28.6-.36-3.52,5.89-.47.78-.59-.66-11.47-12.72.66,0-8,6.53-.09.07h-.1C141.69,344.84,136.61,344.75,131.53,344.62Z"/><rect class="cls-17" x="123.29" y="404.39" width="172.05" height="4.2"/><rect class="cls-17" x="303.51" y="258.96" width="25.73" height="26.95"/><g class="cls-19"><path class="cls-4" d="M111.28,142.74a.64.64,0,0,0-.51-.75h0c-1.6-.63-3.18-1.28-4.75-1.84a.93.93,0,0,1-.62-.69c-.54-1.52-1.16-3-1.71-4.53a1.1,1.1,0,0,1,0-.78c.77-1.56,1.57-3.11,2.37-4.66a.61.61,0,0,0-.09-.86h0c-1.22-1.25-2.41-2.53-3.59-3.82a.62.62,0,0,0-.86-.16c-1.55.69-3.11,1.36-4.66,2.06a1.13,1.13,0,0,1-1,0c-1.44-.69-2.85-1.31-4.26-1.91a1.14,1.14,0,0,1-.74-.74c-.5-1.63-1-3.23-1.56-4.91a.68.68,0,0,0-.62-.45c-1.78-.06-3.54-.1-5.3-.18a.63.63,0,0,0-.71.5c-.62,1.63-1.26,3.23-1.9,4.82a1.17,1.17,0,0,1-.64.56c-1.49.59-3,1.14-4.51,1.75a.9.9,0,0,1-.86,0c-1.48-.82-3.07-1.57-4.59-2.37a.65.65,0,0,0-.92.1c-1.23,1.23-2.48,2.41-3.77,3.55a.67.67,0,0,0-.16.92c.71,1.57,1.36,3.11,2.08,4.72a.88.88,0,0,1,0,.86c-.69,1.44-1.36,2.95-2,4.4a1.23,1.23,0,0,1-.6.61c-1.64.57-3.3,1.08-5,1.63a.73.73,0,0,0-.45.46c-.08,1.82-.14,3.64-.19,5.48a.66.66,0,0,0,.41.64h0L64.35,149a1,1,0,0,1,.61.69q.8,2.25,1.71,4.46a1,1,0,0,1,0,.93c-.82,1.48-1.59,3.06-2.38,4.58a.64.64,0,0,0,.1.87c1.22,1.25,2.42,2.53,3.6,3.81a.63.63,0,0,0,.86.17c1.57-.72,3.11-1.37,4.72-2.1a1,1,0,0,1,.92,0c1.44.69,2.88,1.38,4.27,2a1.12,1.12,0,0,1,.74.74c.5,1.64,1,3.23,1.58,4.91a.65.65,0,0,0,.6.46c1.79,0,3.55.08,5.31.16a.58.58,0,0,0,.69-.46v0c.63-1.62,1.26-3.23,1.9-4.8a1.21,1.21,0,0,1,.64-.56c1.5-.61,3-1.16,4.51-1.76a.93.93,0,0,1,.87,0c1.48.81,3.07,1.56,4.58,2.36a.64.64,0,0,0,.91-.09v0c1.24-1.2,2.49-2.38,3.77-3.54a.64.64,0,0,0,.18-.89v0L103,156.18a1,1,0,0,1,0-1c.7-1.44,1.39-2.88,2-4.28a1,1,0,0,1,.69-.69c1.64-.51,3.22-1,4.92-1.56a.59.59,0,0,0,.49-.66C111.15,146.23,111.2,144.48,111.28,142.74ZM84.85,154.93a10.68,10.68,0,1,1,.06,0Z"/></g><g class="cls-20"><path class="cls-4" d="M119.06,160.89a.35.35,0,0,0-.28-.41c-.86-.32-1.69-.66-2.53-1a.58.58,0,0,1-.34-.38c-.28-.81-.56-1.62-.9-2.41a.56.56,0,0,1,0-.42c.4-.82.83-1.65,1.26-2.48a.31.31,0,0,0-.06-.45c-.64-.68-1.28-1.35-1.91-2a.33.33,0,0,0-.46-.09l-2.47,1.11a.59.59,0,0,1-.56,0c-.73-.37-1.43-.69-2.26-1a.61.61,0,0,1-.39-.39l-.83-2.61a.38.38,0,0,0-.32-.25c-1,0-1.89,0-2.82-.09a.35.35,0,0,0-.39.26h0c-.32.86-.6,1.7-1,2.57a.6.6,0,0,1-.34.28c-.81.29-1.62.57-2.4.94a.47.47,0,0,1-.46,0l-2.44-1.26a.35.35,0,0,0-.49.06h0l-2,1.89a.35.35,0,0,0-.09.49c.38.82.74,1.67,1.11,2.5a.53.53,0,0,1,0,.46c-.38.78-.72,1.57-1.09,2.35a.64.64,0,0,1-.31.32l-2.62.92a.4.4,0,0,0-.25.24l-.1,2.92a.38.38,0,0,0,.22.34h0l2.59,1a.5.5,0,0,1,.33.36c.29.81.57,1.61.91,2.38a.5.5,0,0,1,0,.49c-.43.81-.84,1.63-1.27,2.44a.34.34,0,0,0,.07.47c.64.66,1.28,1.34,1.9,2a.34.34,0,0,0,.46.09c.84-.38,1.68-.73,2.51-1.12a.55.55,0,0,1,.5,0c.75.36,1.49.67,2.27,1a.55.55,0,0,1,.39.39c.3.87.61,1.73.85,2.62a.34.34,0,0,0,.32.24l2.82.09c.22,0,.29-.1.38-.27.31-.85.61-1.69,1-2.55a.61.61,0,0,1,.35-.3,23.39,23.39,0,0,0,2.4-.94.48.48,0,0,1,.45,0c.81.43,1.64.84,2.44,1.26a.36.36,0,0,0,.5-.05h0c.65-.64,1.33-1.27,2-1.9a.35.35,0,0,0,.09-.49c-.38-.82-.73-1.65-1.11-2.48a.56.56,0,0,1,0-.52c.38-.75.68-1.49,1-2.28a.53.53,0,0,1,.37-.37c.86-.3,1.73-.61,2.62-.83a.32.32,0,0,0,.25-.36C119,162.74,119,161.81,119.06,160.89ZM105,167.36a5.52,5.52,0,1,1,5.7-5.34,5.52,5.52,0,0,1-5.7,5.34Z"/></g><path class="cls-21" d="M369.61,215l3,.3a40,40,0,0,1,20.25,8.56,41.86,41.86,0,0,1,6.2,6.07,2.12,2.12,0,0,1,.05,3,2,2,0,0,1-.21.2l-2,2.14a1.5,1.5,0,0,1-2.07.48,1.46,1.46,0,0,1-.54-.59,34,34,0,0,0-16.46-11.46,33.41,33.41,0,0,0-36,10.77c-.4.47-.76,1-1.15,1.45a1.4,1.4,0,0,1-1.93.45,1.17,1.17,0,0,1-.35-.31c-.84-.82-1.67-1.65-2.48-2.52a2,2,0,0,1-.1-2.79,40.66,40.66,0,0,1,25.33-15.23c1.3-.23,2.6-.36,3.91-.54Z"/><path class="cls-21" d="M389.33,243.34c-.75.83-1.53,1.64-2.31,2.45a1.33,1.33,0,0,1-2.36-.22,21,21,0,0,0-7.1-6.58,20.1,20.1,0,0,0-26.07,5.68c-.34.46-.65.94-1,1.41a1.28,1.28,0,0,1-1.73.54,1.52,1.52,0,0,1-.39-.33c-.87-.85-1.71-1.71-2.54-2.61a2.12,2.12,0,0,1-.19-2.81,27,27,0,0,1,19.45-11.47c.76,0,1.57-.05,2.47-.12a27.07,27.07,0,0,1,21.92,11.2A2.14,2.14,0,0,1,389.33,243.34Z"/><path class="cls-21" d="M368.52,243.61a16.46,16.46,0,0,1,12.23,6.15,2,2,0,0,1,0,2.69c-.85,1-1.75,1.91-2.67,2.84a1.28,1.28,0,0,1-2-.2,16.93,16.93,0,0,0-1.94-2,9.91,9.91,0,0,0-14,1.3l-.27.33c-1.29,1.61-1.66,1.64-3.09.19L354.92,253a2.13,2.13,0,0,1-.34-3l.21-.22A17.33,17.33,0,0,1,368.52,243.61Z"/><path class="cls-21" d="M363.59,261.52a4.21,4.21,0,1,1,4.24,4.35A4.29,4.29,0,0,1,363.59,261.52Z"/><path class="cls-21" d="M242.6,74.21l.89,1.09A18.93,18.93,0,0,1,247.37,85a20.07,20.07,0,0,1,0,4.1,1,1,0,0,1-1,1h-.13l-1.4,0a.71.71,0,0,1-.85-.53.7.7,0,0,1,0-.38,16,16,0,0,0-1.65-9.34,15.79,15.79,0,0,0-15.63-8.5l-.87.1a.66.66,0,0,1-.79-.5.55.55,0,0,1,0-.22c0-.55,0-1.11,0-1.67a1,1,0,0,1,.9-1,19.18,19.18,0,0,1,13.55,3.41c.51.36,1,.76,1.49,1.14Z"/><path class="cls-21" d="M237.13,78.29a12.81,12.81,0,0,1,3.55,11.09,1,1,0,0,1-1,.89c-.53,0-1.07,0-1.6,0a.64.64,0,0,1-.75-.49.71.71,0,0,1,0-.38,9.81,9.81,0,0,0-.16-4.57A9.49,9.49,0,0,0,226.6,78l-.8.14a.6.6,0,0,1-.75-.4.65.65,0,0,1,0-.24c0-.58,0-1.15,0-1.72a1,1,0,0,1,.88-1,12.76,12.76,0,0,1,10.33,2.7C236.53,77.75,236.81,78,237.13,78.29Z"/><path class="cls-21" d="M232.64,83.38a7.83,7.83,0,0,1,2,6.16,1,1,0,0,1-.9.89c-.62,0-1.23,0-1.85,0-.42,0-.63-.29-.61-.75a8.32,8.32,0,0,0,0-1.32,4.7,4.7,0,0,0-5.1-4.26l-.2,0c-1,.1-1.1,0-1.1-1L225,82a1,1,0,0,1,.89-1.1H226A8.24,8.24,0,0,1,232.64,83.38Z"/><path class="cls-21" d="M225,87.7a2,2,0,1,1-.05,2.88A2,2,0,0,1,225,87.7Z"/><path class="cls-4" d="M183.28,125.38H155.79a16.21,16.21,0,0,1-7.44-30.67,1.38,1.38,0,0,0,.87-1.46,22.42,22.42,0,0,1,18-22.52c8.93-1.83,16.45,1,22.37,8,.44.51.69.57,1.29.25a17.76,17.76,0,0,1,26.28,13.41A3.22,3.22,0,0,0,219,95.16a16,16,0,0,1,7.84,17,16.26,16.26,0,0,1-13.74,13.09,19.42,19.42,0,0,1-2.53.16Z"/><path class="cls-22" d="M175.87,128.66S146.37,191,183.5,247.44"/><circle class="cls-4" cx="174.13" cy="195.38" r="4.22"/><circle class="cls-23" cx="326.32" cy="161.22" r="4.22"/><circle class="cls-4" cx="158.35" cy="150.06" r="4.22"/><circle class="cls-23" cx="341.33" cy="202.41" r="4.22"/><path class="cls-24" d="M376.72,107l.85,1a18.07,18.07,0,0,1,3.73,9.25,20,20,0,0,1,0,3.94,1,1,0,0,1-.95,1h-.13l-1.34,0a.66.66,0,0,1-.81-.51.63.63,0,0,1,0-.36,15.39,15.39,0,0,0-1.58-9,15.15,15.15,0,0,0-15-8.15l-.84.1a.64.64,0,0,1-.76-.48.74.74,0,0,1,0-.21c0-.54,0-1.07,0-1.6a.93.93,0,0,1,.86-.93,18.42,18.42,0,0,1,13,3.28c.49.34.95.72,1.42,1.08Z"/><path class="cls-24" d="M371.47,110.87a12.26,12.26,0,0,1,3.41,10.64,1,1,0,0,1-1,.86l-1.53,0a.61.61,0,0,1-.72-.47.56.56,0,0,1,0-.36,9.58,9.58,0,0,0-.16-4.39,9.1,9.1,0,0,0-10.16-6.57c-.26,0-.52.09-.77.13a.57.57,0,0,1-.72-.38.47.47,0,0,1,0-.23q0-.83,0-1.65a1,1,0,0,1,.84-1,12.27,12.27,0,0,1,9.91,2.59C370.9,110.35,371.16,110.6,371.47,110.87Z"/><path class="cls-24" d="M367.17,115.76a7.5,7.5,0,0,1,1.93,5.9.93.93,0,0,1-.87.86c-.59,0-1.18,0-1.77,0-.41,0-.61-.28-.59-.71a7.83,7.83,0,0,0,0-1.28,4.51,4.51,0,0,0-4.89-4.08l-.19,0c-.93.1-1.06,0-1.05-.93v-1.2a1,1,0,0,1,.85-1.06h.14A7.87,7.87,0,0,1,367.17,115.76Z"/><path class="cls-24" d="M359.82,119.9a1.91,1.91,0,1,1,0,2.75A1.94,1.94,0,0,1,359.82,119.9Z"/><g class="cls-25"><path class="cls-4" d="M309.11,111.22c-5.14-.7-9.21,1.32-12.13,5.61a1.25,1.25,0,0,1-.89.47,9,9,0,0,0-7.09,3.46,1.44,1.44,0,0,1-1.53.61,7,7,0,0,0-7.31,9.12,7.12,7.12,0,0,0,7.08,4.84H305.9a10.74,10.74,0,0,1,5.72-7.6.91.91,0,0,0,.58-1A15.05,15.05,0,0,1,317,115.53,11.48,11.48,0,0,0,309.11,111.22Z"/></g><g class="cls-26"><path class="cls-4" d="M363.54,139.25a10.76,10.76,0,0,1-9.09,8.67,13.21,13.21,0,0,1-1.66.1H316.54A10.69,10.69,0,0,1,306,139.46a10.46,10.46,0,0,1-.07-4.13,10.74,10.74,0,0,1,5.72-7.6.91.91,0,0,0,.58-1A15.05,15.05,0,0,1,317,115.53a14.71,14.71,0,0,1,7.15-3.67c5.91-1.21,10.88.66,14.8,5.26.29.34.47.38.85.17a11.75,11.75,0,0,1,17.39,8.87,2.14,2.14,0,0,0,1.21,1.88A10.56,10.56,0,0,1,363.54,139.25Z"/></g><path class="cls-27" d="M336.17,149.82s.12.84.25,2.48"/><path class="cls-28" d="M336.7,157c.48,12.82-.34,42-13.07,81.61"/><path class="cls-27" d="M322.89,240.9c-.26.79-.52,1.58-.79,2.37"/><polyline class="cls-29" points="126.9 396.15 143.98 382.01 166.28 394.97 180.79 366.41 198.46 381.28 218.78 372.55 238.51 388.84 254.04 372.55 273.84 387.61 280.16 376.42 285.62 377.01 290.04 388.84 298.28 391.14"/><circle class="cls-21" cx="143.54" cy="373.33" r="2.87"/><circle class="cls-21" cx="180.09" cy="360.85" r="2.87"/><circle class="cls-21" cx="219.4" cy="367.59" r="2.87"/><circle class="cls-21" cx="254.95" cy="367.59" r="2.87"/><circle class="cls-21" cx="287.41" cy="372.55" r="2.87"/><polygon class="cls-17" points="160.57 243.19 131.53 243.19 131.53 206.22 154.56 206.22 157.08 208.8 160.57 212.41 160.57 243.19"/><polygon class="cls-5" points="161.65 212.89 161.65 242.35 132.61 242.35 132.61 205.38 154.13 205.38 161.65 212.89"/><polygon class="cls-17" points="154.13 212.89 154.13 205.38 161.65 212.89 154.13 212.89"/><circle class="cls-4" cx="140.47" cy="213.6" r="5.02"/><circle class="cls-10" cx="140.47" cy="212.08" r="2.41"/><path class="cls-10" d="M144.3,216.83a5,5,0,0,1-7.66,0,4.3,4.3,0,0,1,7.66,0Z"/><rect class="cls-30" x="135.09" y="221.71" width="22.14" height="2.3"/><rect class="cls-30" x="135.09" y="225.55" width="22.14" height="2.3"/><rect class="cls-16" x="135.09" y="229.29" width="22.14" height="1.15"/><rect class="cls-16" x="135.09" y="231.59" width="22.14" height="1.15"/><rect class="cls-16" x="135.09" y="233.89" width="22.14" height="1.15"/><rect class="cls-16" x="135.09" y="236.19" width="22.14" height="1.15"/><rect class="cls-16" x="135.09" y="238.49" width="22.14" height="1.15"/><rect class="cls-30" x="147.44" y="214.08" width="9.79" height="2.3"/><rect class="cls-30" x="147.44" y="210.62" width="5.4" height="2.3"/><rect class="cls-30" x="147.44" y="207.16" width="5.4" height="2.3"/><rect class="cls-30" x="147.44" y="217.91" width="9.79" height="2.3"/><polygon class="cls-17" points="298.98 198.19 269.93 198.19 269.93 161.22 292.96 161.22 295.49 163.8 298.98 167.41 298.98 198.19"/><polygon class="cls-5" points="300.06 167.89 300.06 197.35 271.01 197.35 271.01 160.38 292.54 160.38 300.06 167.89"/><polygon class="cls-17" points="292.54 167.89 292.54 160.38 300.06 167.89 292.54 167.89"/><circle class="cls-4" cx="278.88" cy="168.59" r="5.02"/><circle class="cls-10" cx="278.88" cy="167.07" r="2.41"/><path class="cls-10" d="M282.71,171.83a5,5,0,0,1-7.67,0,4.31,4.31,0,0,1,7.67,0Z"/><rect class="cls-30" x="273.5" y="176.71" width="22.14" height="2.3"/><rect class="cls-30" x="273.5" y="180.55" width="22.14" height="2.3"/><rect class="cls-16" x="273.5" y="184.29" width="22.14" height="1.15"/><rect class="cls-16" x="273.5" y="186.59" width="22.14" height="1.15"/><rect class="cls-16" x="273.5" y="188.89" width="22.14" height="1.15"/><rect class="cls-16" x="273.5" y="191.19" width="22.14" height="1.15"/><rect class="cls-16" x="273.5" y="193.49" width="22.14" height="1.15"/><rect class="cls-30" x="285.85" y="169.08" width="9.79" height="2.3"/><rect class="cls-30" x="285.85" y="165.62" width="5.4" height="2.3"/><rect class="cls-30" x="285.85" y="162.16" width="5.4" height="2.3"/><rect class="cls-30" x="285.85" y="172.91" width="9.79" height="2.3"/><polygon class="cls-17" points="200.55 189.16 178.28 189.16 178.28 160.81 195.94 160.81 197.87 162.79 200.55 165.56 200.55 189.16"/><polygon class="cls-5" points="201.37 165.93 201.37 188.51 179.11 188.51 179.11 160.17 195.61 160.17 201.37 165.93"/><polygon class="cls-17" points="195.61 165.93 195.61 160.17 201.37 165.93 195.61 165.93"/><circle class="cls-4" cx="185.14" cy="166.47" r="3.85"/><circle class="cls-10" cx="185.14" cy="165.31" r="1.85"/><path class="cls-10" d="M188.08,169a3.84,3.84,0,0,1-5.88,0,3.31,3.31,0,0,1,5.88,0Z"/><rect class="cls-30" x="181.01" y="172.69" width="16.97" height="1.76"/><rect class="cls-30" x="181.01" y="175.63" width="16.97" height="1.76"/><rect class="cls-16" x="181.01" y="178.5" width="16.97" height="0.88"/><rect class="cls-16" x="181.01" y="180.27" width="16.97" height="0.88"/><rect class="cls-16" x="181.01" y="182.03" width="16.97" height="0.88"/><rect class="cls-16" x="181.01" y="183.79" width="16.97" height="0.88"/><rect class="cls-16" x="181.01" y="185.55" width="16.97" height="0.88"/><rect class="cls-30" x="190.49" y="166.84" width="7.5" height="1.76"/><rect class="cls-30" x="190.49" y="164.19" width="4.14" height="1.76"/><rect class="cls-30" x="190.49" y="161.54" width="4.14" height="1.76"/><rect class="cls-30" x="190.49" y="169.78" width="7.5" height="1.76"/><polygon class="cls-17" points="394.27 208.25 372 208.25 372 179.91 389.66 179.91 391.59 181.89 394.27 184.65 394.27 208.25"/><polygon class="cls-5" points="395.1 185.02 395.1 207.61 372.83 207.61 372.83 179.26 389.34 179.26 395.1 185.02"/><polygon class="cls-17" points="389.34 185.02 389.34 179.26 395.1 185.02 389.34 185.02"/><circle class="cls-4" cx="378.86" cy="185.56" r="3.85"/><circle class="cls-10" cx="378.86" cy="184.4" r="1.85"/><path class="cls-10" d="M381.8,188a3.84,3.84,0,0,1-5.88,0,3.31,3.31,0,0,1,5.88,0Z"/><rect class="cls-30" x="374.74" y="191.79" width="16.97" height="1.76"/><rect class="cls-30" x="374.74" y="194.73" width="16.97" height="1.76"/><rect class="cls-16" x="374.74" y="197.59" width="16.97" height="0.88"/><rect class="cls-16" x="374.74" y="199.36" width="16.97" height="0.88"/><rect class="cls-16" x="374.74" y="201.12" width="16.97" height="0.88"/><rect class="cls-16" x="374.74" y="202.88" width="16.97" height="0.88"/><rect class="cls-16" x="374.74" y="204.65" width="16.97" height="0.88"/><rect class="cls-30" x="384.21" y="185.93" width="7.5" height="1.76"/><rect class="cls-30" x="384.21" y="183.28" width="4.14" height="1.76"/><rect class="cls-30" x="384.21" y="180.63" width="4.14" height="1.76"/><rect class="cls-30" x="384.21" y="188.87" width="7.5" height="1.76"/><polygon class="cls-17" points="292.14 235.39 273.5 235.39 273.5 211.65 288.28 211.65 289.9 213.31 292.14 215.62 292.14 235.39"/><polygon class="cls-5" points="292.84 215.93 292.84 234.85 274.19 234.85 274.19 211.11 288.01 211.11 292.84 215.93"/><polygon class="cls-17" points="288.01 215.93 288.01 211.11 292.84 215.93 288.01 215.93"/><circle class="cls-4" cx="279.24" cy="216.38" r="3.22"/><circle class="cls-10" cx="279.24" cy="215.41" r="1.55"/><path class="cls-10" d="M281.7,218.46a3.21,3.21,0,0,1-4.92,0,2.77,2.77,0,0,1,4.92,0Z"/><rect class="cls-30" x="275.78" y="221.6" width="14.22" height="1.48"/><rect class="cls-30" x="275.78" y="224.06" width="14.22" height="1.48"/><rect class="cls-16" x="275.78" y="226.46" width="14.22" height="0.74"/><rect class="cls-16" x="275.78" y="227.94" width="14.22" height="0.74"/><rect class="cls-16" x="275.78" y="229.41" width="14.22" height="0.74"/><rect class="cls-16" x="275.78" y="230.89" width="14.22" height="0.74"/><rect class="cls-16" x="275.78" y="232.37" width="14.22" height="0.74"/><rect class="cls-30" x="283.72" y="216.69" width="6.28" height="1.48"/><rect class="cls-30" x="283.72" y="214.48" width="3.46" height="1.48"/><rect class="cls-30" x="283.72" y="212.26" width="3.46" height="1.48"/><rect class="cls-30" x="283.72" y="219.16" width="6.28" height="1.48"/><polygon class="cls-17" points="251.86 244.46 210.99 244.46 210.99 192.42 243.4 192.42 246.95 196.06 251.86 201.14 251.86 244.46"/><polygon class="cls-5" points="253.38 201.81 253.38 243.27 212.51 243.27 212.51 191.24 242.81 191.24 253.38 201.81"/><polygon class="cls-17" points="242.81 201.81 242.81 191.24 253.38 201.81 242.81 201.81"/><circle class="cls-4" cx="223.58" cy="202.81" r="7.06"/><circle class="cls-10" cx="223.58" cy="200.67" r="3.39"/><path class="cls-10" d="M229,207.36a7.05,7.05,0,0,1-10.79,0,6.06,6.06,0,0,1,10.79,0Z"/><rect class="cls-30" x="216" y="214.23" width="31.16" height="3.24"/><rect class="cls-30" x="216" y="219.63" width="31.16" height="3.24"/><rect class="cls-16" x="216" y="224.89" width="31.16" height="1.62"/><rect class="cls-16" x="216" y="228.13" width="31.16" height="1.62"/><rect class="cls-16" x="216" y="231.36" width="31.16" height="1.62"/><rect class="cls-16" x="216" y="234.6" width="31.16" height="1.62"/><rect class="cls-16" x="216" y="237.84" width="31.16" height="1.62"/><rect class="cls-30" x="233.39" y="203.49" width="13.77" height="3.24"/><rect class="cls-30" x="233.39" y="198.62" width="7.59" height="3.24"/><rect class="cls-30" x="233.39" y="193.76" width="7.59" height="3.24"/><rect class="cls-30" x="233.39" y="208.88" width="13.77" height="3.24"/><path class="cls-31" d="M64.66,272.62h0A24.58,24.58,0,0,1,89.24,248h0a6.32,6.32,0,0,1,6.31,6.32v18.26a6.31,6.31,0,0,1-6.31,6.31H71a6.31,6.31,0,0,1-6.31-6.31Z"/><path class="cls-32" d="M401.6,265.06h0a24.58,24.58,0,0,1,24.58-24.57h0a6.3,6.3,0,0,1,6.31,6.31v18.26a6.31,6.31,0,0,1-6.31,6.32H408a6.32,6.32,0,0,1-6.31-6.32Z"/></svg>